<svg width="30" height="30" viewBox="0 0 30 30" fill="none" xmlns="http://www.w3.org/2000/svg">
<path d="M8.67505 6.25003C8.67472 6.91307 8.41101 7.54882 7.94193 8.01743C7.47286 8.48604 6.83684 8.74911 6.1738 8.74878C5.51076 8.74845 4.875 8.48474 4.4064 8.01566C3.93779 7.54659 3.67472 6.91057 3.67505 6.24753C3.67538 5.58449 3.93909 4.94874 4.40817 4.48013C4.87724 4.01152 5.51326 3.74845 6.1763 3.74878C6.83934 3.74911 7.47509 4.01282 7.9437 4.4819C8.41231 4.95097 8.67538 5.58699 8.67505 6.25003ZM8.75005 10.6H3.75005V26.25H8.75005V10.6ZM16.65 10.6H11.675V26.25H16.6V18.0375C16.6 13.4625 22.5625 13.0375 22.5625 18.0375V26.25H27.5V16.3375C27.5 8.62503 18.675 8.91253 16.6 12.7L16.65 10.6Z" fill="#037F80"/>
</svg>
