<svg width="360" height="471" viewBox="0 0 360 471" fill="none" xmlns="http://www.w3.org/2000/svg">
<path d="M323.004 170.747H351.164V172.187H323.004V170.747Z" fill="#FDE4C3"/>
<path d="M352.252 186.563C352.828 187.95 353.116 189.283 353.116 190.563C353.116 191.63 352.721 192.728 351.932 193.859C351.505 194.478 350.673 195.171 349.436 195.939C348.582 196.451 347.036 197.102 344.796 197.891L333.724 201.795C331.249 202.691 329.286 203.598 327.836 204.515C326.364 205.454 325.265 206.307 324.54 207.075C323.793 207.843 323.27 208.643 322.972 209.475C322.673 210.307 322.524 210.99 322.524 211.523C322.524 212.078 322.566 212.568 322.652 212.995L322.332 213.027C321.99 212.003 321.82 211 321.82 210.019C321.82 209.038 322.076 208.056 322.588 207.075C323.078 206.094 323.772 205.176 324.668 204.323C326.524 202.488 329.35 200.931 333.148 199.651L336.796 198.403V189.635L331.1 187.427C330.844 187.32 330.588 187.267 330.332 187.267C330.076 187.267 329.798 187.374 329.5 187.587C329.222 187.822 329.084 188.174 329.084 188.643V188.899H328.764V182.467H329.084V182.755C329.084 183.267 329.233 183.768 329.532 184.259C329.852 184.75 330.321 185.155 330.94 185.475L349.948 193.411C351.59 192.259 352.412 190.83 352.412 189.123C352.412 188.355 352.252 187.534 351.932 186.659L352.252 186.563ZM337.756 189.987V198.083L345.212 195.555C346.641 195.064 347.761 194.616 348.572 194.211L337.756 189.987Z" fill="#FDE4C3"/>
<path d="M346.492 209.062C348.305 209.68 349.553 210.715 350.236 212.166C350.918 213.616 351.26 216.187 351.26 219.878C351.26 220.646 351.228 222.587 351.164 225.702C351.1 227.963 350.609 229.958 349.692 231.686C348.774 233.414 347.473 234.758 345.788 235.718C344.124 236.699 342.182 237.19 339.964 237.19C336.614 237.19 333.905 236.123 331.836 233.99C329.788 231.878 328.764 229.115 328.764 225.702V214.854L329.084 214.886V215.27C329.084 215.803 329.254 216.262 329.596 216.646C329.958 217.03 330.396 217.254 330.908 217.318H350.204C350.14 214.651 349.724 212.763 348.956 211.654C348.55 211.078 348.156 210.64 347.772 210.342C347.409 210.043 346.94 209.734 346.364 209.414L346.492 209.062ZM350.204 219.398H329.724V225.702C329.724 228.411 330.662 230.598 332.54 232.262C334.417 233.947 336.892 234.79 339.964 234.79C341.99 234.79 343.772 234.406 345.308 233.638C346.865 232.891 348.07 231.824 348.924 230.438C349.777 229.072 350.204 227.494 350.204 225.702V219.398Z" fill="#FDE4C3"/>
<path d="M329.084 238.723C329.084 239.277 329.276 239.747 329.66 240.131C330.065 240.536 330.545 240.749 331.1 240.771H349.02C349.532 240.771 349.958 240.568 350.3 240.163C350.662 239.757 350.844 239.277 350.844 238.723V238.339L351.164 238.307V247.683C351.164 248.344 351.228 249.059 351.356 249.827C351.484 250.616 351.612 251.171 351.74 251.491H347.708V251.171H348.284C348.796 251.171 349.233 250.989 349.596 250.627C349.958 250.285 350.15 249.869 350.172 249.379V242.851H340.284V248.259C340.305 248.685 340.465 249.048 340.764 249.347C341.062 249.645 341.436 249.795 341.884 249.795H342.332V250.115H337.276V249.795H337.756C338.182 249.795 338.545 249.645 338.844 249.347C339.142 249.069 339.302 248.717 339.324 248.291V242.851H329.756V247.427C329.756 249.005 330.108 250.211 330.812 251.043C331.516 251.875 332.561 252.568 333.948 253.123V253.443L328.764 251.587V238.307H329.084V238.723Z" fill="#FDE4C3"/>
<path d="M351.164 265.601C351.164 269.015 350.129 271.777 348.06 273.889C346.012 276.023 343.313 277.089 339.964 277.089C336.614 277.089 333.905 276.023 331.836 273.889C329.788 271.777 328.764 269.015 328.764 265.601V254.753H329.084V255.169C329.084 255.724 329.276 256.193 329.66 256.577C330.065 256.983 330.545 257.196 331.1 257.217H349.02C349.532 257.217 349.958 257.004 350.3 256.577C350.662 256.172 350.844 255.703 350.844 255.169V254.785L351.164 254.753V265.601ZM350.204 259.297H329.724V265.601C329.724 267.393 330.15 268.972 331.004 270.337C331.857 271.724 333.052 272.791 334.588 273.537C336.145 274.305 337.937 274.689 339.964 274.689C343.036 274.689 345.51 273.847 347.388 272.161C349.265 270.497 350.204 268.311 350.204 265.601V259.297Z" fill="#FDE4C3"/>
<path d="M329.084 278.025C329.084 278.58 329.276 279.049 329.66 279.433C330.065 279.838 330.545 280.052 331.1 280.073H348.86C349.414 280.052 349.884 279.838 350.268 279.433C350.652 279.049 350.844 278.58 350.844 278.025V277.609H351.164V284.617H350.844V284.201C350.844 283.646 350.652 283.166 350.268 282.761C349.884 282.377 349.414 282.174 348.86 282.153H331.1C330.545 282.153 330.065 282.356 329.66 282.761C329.276 283.166 329.084 283.646 329.084 284.201V284.617H328.764V277.609H329.084V278.025Z" fill="#FDE4C3"/>
<path d="M328.316 298.889C328.337 295.518 329.414 292.766 331.548 290.633C333.681 288.521 336.486 287.465 339.964 287.465C343.462 287.465 346.278 288.521 348.412 290.633C350.545 292.766 351.612 295.582 351.612 299.081C351.612 301.94 350.886 304.468 349.436 306.665L344.924 307.305V307.017C346.758 306.548 348.166 305.598 349.148 304.169C350.15 302.74 350.652 301.044 350.652 299.081C350.652 296.286 349.681 294.046 347.74 292.361C345.798 290.697 343.228 289.865 340.028 289.865C336.828 289.865 334.246 290.686 332.284 292.329C330.342 293.993 329.34 296.18 329.276 298.889C329.276 301.278 329.926 303.273 331.228 304.873C332.636 306.601 334.929 307.646 338.108 308.009V308.265L333.084 307.881C329.905 305.94 328.316 302.942 328.316 298.889Z" fill="#FDE4C3"/>
<path d="M326.993 330.119L326.967 330.373L326.649 330.34L327.391 323.179L327.709 323.212L327.679 323.498C327.633 323.944 327.737 324.287 327.991 324.528C328.264 324.792 328.527 324.937 328.782 324.964C329.037 324.99 329.296 324.974 329.559 324.915L335.181 323.439L336.072 314.845L330.85 312.148C330.604 312.037 330.354 311.968 330.099 311.942C329.866 311.918 329.589 311.996 329.27 312.178C328.97 312.383 328.797 312.708 328.751 313.153L328.721 313.44L328.403 313.407L329.066 307.009L329.384 307.042L329.354 307.329C329.299 307.859 329.415 308.397 329.702 308.941C329.989 309.485 330.445 309.951 331.07 310.337L347.449 319.305C349.086 320.268 350.138 320.774 350.605 320.822L350.575 321.109L329.289 327.525C328.6 327.754 328.06 328.106 327.667 328.58C327.275 329.054 327.05 329.567 326.993 330.119ZM336.987 315.326L336.176 323.156L346.789 320.395L336.987 315.326Z" fill="#FDE4C3"/>
<path d="M341.526 348.359C342.022 348.484 342.491 348.415 342.931 348.151C343.392 347.893 343.692 347.529 343.833 347.058L345.314 341.162L326.725 336.49C326.181 336.375 325.677 336.457 325.211 336.736C324.74 337.036 324.436 337.454 324.301 337.992L324.2 338.396L323.89 338.318L325.598 331.521L325.908 331.599L325.807 332.002C325.671 332.54 325.743 333.042 326.022 333.508C326.296 333.995 326.689 334.314 327.201 334.464L345.821 339.144L347.303 333.248C347.408 332.746 347.318 332.272 347.034 331.827C346.765 331.408 346.382 331.136 345.886 331.011L345.358 330.878L345.405 330.56L349.316 331.543C349.114 331.822 348.854 332.329 348.538 333.063C348.221 333.797 347.982 334.485 347.821 335.127L345.185 345.616C344.93 346.63 344.792 347.486 344.77 348.185C344.764 348.909 344.774 349.352 344.8 349.512L340.889 348.529L340.998 348.227L341.526 348.359Z" fill="#FDE4C3"/>
<path d="M322.216 344.785C322.009 345.3 322.013 345.807 322.226 346.306C322.452 346.833 322.818 347.21 323.324 347.436L339.956 354.109C340.431 354.3 340.902 354.27 341.37 354.021C341.858 353.78 342.205 353.402 342.411 352.888L342.554 352.531L342.863 352.621L339.372 361.322C339.126 361.936 338.919 362.623 338.752 363.384C338.577 364.164 338.489 364.726 338.488 365.071L334.746 363.57L334.866 363.273L335.4 363.487C335.875 363.678 336.349 363.672 336.82 363.471C337.284 363.289 337.617 362.974 337.82 362.527L340.25 356.468L331.073 352.787L329.06 357.806C328.921 358.21 328.934 358.606 329.1 358.994C329.266 359.382 329.557 359.66 329.973 359.827L330.389 359.994L330.269 360.291L325.577 358.408L325.696 358.111L326.142 358.29C326.538 358.449 326.93 358.445 327.318 358.279C327.699 358.133 327.978 357.866 328.157 357.478L330.183 352.429L321.303 348.866L319.599 353.113C319.011 354.578 318.889 355.828 319.232 356.862C319.576 357.897 320.288 358.929 321.368 359.961L321.249 360.257L317.129 356.605L322.074 344.28L322.371 344.399L322.216 344.785Z" fill="#FDE4C3"/>
<path d="M329.675 380.253C327.936 383.19 325.639 385.041 322.782 385.804C319.933 386.597 317.068 386.141 314.185 384.435C311.303 382.73 309.514 380.432 308.82 377.542C308.133 374.681 308.659 371.782 310.397 368.845L315.922 359.509L316.197 359.672L315.985 360.03C315.703 360.507 315.629 361.009 315.764 361.535C315.906 362.09 316.211 362.518 316.677 362.819L332.099 371.945C332.54 372.206 333.016 372.24 333.527 372.046C334.045 371.882 334.44 371.571 334.712 371.112L334.907 370.781L335.199 370.917L329.675 380.253ZM332.059 374.338L314.434 363.908L311.223 369.334C310.311 370.876 309.874 372.452 309.913 374.061C309.941 375.689 310.426 377.216 311.368 378.641C312.317 380.095 313.663 381.338 315.407 382.37C318.051 383.934 320.61 384.469 323.084 383.975C325.547 383.499 327.469 382.095 328.848 379.764L332.059 374.338Z" fill="#FDE4C3"/>
<path d="M294.66 403.402C294.977 403.688 295.347 403.819 295.768 403.797C296.176 403.79 296.53 403.636 296.831 403.333L303.679 395.719L297.564 390.22C297.152 389.849 296.66 389.678 296.087 389.709C295.531 389.753 295.067 389.982 294.696 390.394L294.418 390.703L294.18 390.489L298.866 385.279L299.104 385.493L298.826 385.802C298.455 386.215 298.284 386.692 298.313 387.234C298.343 387.807 298.557 388.286 298.955 388.673L312.279 400.656C312.66 400.999 313.12 401.126 313.659 401.037C314.2 400.978 314.648 400.75 315.005 400.353L315.262 400.068L315.521 400.258L309.251 407.229C308.638 407.911 308.151 408.564 307.791 409.187C307.432 409.811 307.212 410.23 307.133 410.446L304.444 408.028L304.658 407.79L305.015 408.111C305.332 408.396 305.702 408.528 306.124 408.505C306.561 408.497 306.93 408.327 307.23 407.994L311.745 402.973L304.393 396.361L297.567 403.951C297.297 404.282 297.174 404.659 297.196 405.081C297.218 405.503 297.396 405.863 297.729 406.163L298.062 406.462L297.848 406.7L294.089 403.319L294.303 403.081L294.66 403.402Z" fill="#FDE4C3"/>
<path d="M297.644 417.047L299.183 415.696L286.6 401.364C286.234 400.948 285.773 400.714 285.217 400.662C284.659 400.641 284.163 400.821 283.731 401.201L283.442 401.454L283.207 401.235L288.473 396.611L288.684 396.851L288.372 397.126C287.955 397.492 287.729 397.946 287.694 398.488C287.642 399.044 287.792 399.537 288.142 399.968L299.859 413.314C300.241 413.716 300.711 413.928 301.269 413.95C301.825 414.001 302.312 413.843 302.728 413.477L303.041 413.203L303.252 413.443L296.76 419.144C295.301 420.425 293.796 421.022 292.244 420.937C290.707 420.867 289.368 420.183 288.228 418.885C287.102 417.602 286.524 416.136 286.496 414.486C286.465 412.867 287.018 411.558 288.157 410.558C287.818 410.657 287.34 410.679 286.724 410.624C286.106 410.599 285.513 410.523 284.947 410.395C281.837 409.634 279.87 409.204 279.045 409.105C278.234 409.022 277.663 408.97 277.332 408.948C277.015 408.943 276.682 408.951 276.332 408.974C275.983 408.997 275.662 409.051 275.369 409.138C274.707 409.322 274.112 409.646 273.583 410.11L273.372 409.87L274.694 408.709C275.384 408.103 276.13 407.661 276.935 407.38C277.753 407.116 278.427 406.978 278.957 406.968C279.485 406.987 279.967 407.018 280.402 407.061C280.836 407.135 282.161 407.448 284.377 408C286.594 408.552 287.867 408.854 288.196 408.905C288.539 408.973 288.883 409.026 289.229 409.063C290.22 409.158 290.973 408.98 291.486 408.53L291.697 408.77C291.554 408.867 291.379 409.006 291.171 409.189C290.962 409.372 290.713 409.606 290.422 409.889C288.477 411.682 287.958 413.614 288.867 415.684C289.052 416.089 289.264 416.427 289.504 416.7C289.757 416.988 289.919 417.173 289.989 417.253C290.964 418.299 292.005 418.918 293.111 419.111C294.217 419.304 295.24 419.03 296.18 418.29C296.579 417.968 297.067 417.554 297.644 417.047Z" fill="#FDE4C3"/>
<path d="M283.166 426.473C282.435 429.526 280.551 432.044 277.516 434.029C274.462 436.025 271.391 436.746 268.301 436.192C265.223 435.655 262.733 433.932 260.83 431.022C258.927 428.111 258.341 425.13 259.073 422.077C259.816 419.042 261.714 416.527 264.768 414.531C267.803 412.546 270.86 411.822 273.938 412.358C277.027 412.913 279.524 414.645 281.427 417.555C283.329 420.466 283.909 423.438 283.166 426.473ZM272.877 413.893C270.285 413.243 267.757 413.723 265.293 415.334C262.829 416.945 261.384 419.062 260.958 421.686C260.514 424.321 261.168 426.977 262.919 429.656C264.67 432.334 266.842 433.998 269.434 434.649C272.007 435.311 274.526 434.836 276.99 433.225C279.455 431.614 280.908 429.491 281.352 426.856C281.778 424.233 281.115 421.582 279.364 418.904C277.613 416.225 275.451 414.555 272.877 413.893Z" fill="#FDE4C3"/>
<path d="M243.025 450.742C243.512 450.522 243.851 450.159 244.043 449.651C244.244 449.163 244.245 448.671 244.045 448.176L237.259 433.123C236.75 431.995 236.2 430.956 235.608 430.006L235.313 429.507L235.575 429.389L259.129 439.2L252.579 424.672C252.36 424.185 251.997 423.846 251.489 423.654C250.99 423.481 250.497 423.504 250.011 423.724L249.456 423.973L249.325 423.682L255.334 420.973L255.466 421.264L254.912 421.514C254.425 421.733 254.082 422.087 253.881 422.576C253.689 423.083 253.706 423.59 253.934 424.096L260.76 439.236C261.295 440.423 261.841 441.452 262.398 442.324L262.666 442.765L262.375 442.896L238.822 433.085L245.345 447.555C245.592 448.052 245.965 448.387 246.464 448.559C246.972 448.752 247.469 448.738 247.956 448.519L248.51 448.269L248.641 448.561L242.632 451.27L242.5 450.978L243.025 450.742Z" fill="#FDE4C3"/>
<path d="M222.51 454.156C222.66 454.646 222.962 455.011 223.415 455.251C223.874 455.512 224.342 455.581 224.817 455.457L230.63 453.676L225.013 435.349C224.83 434.825 224.498 434.436 224.019 434.181C223.519 433.933 223.004 433.89 222.473 434.052L222.075 434.174L221.982 433.868L228.682 431.815L228.776 432.121L228.378 432.243C227.848 432.405 227.455 432.726 227.201 433.206C226.926 433.692 226.856 434.193 226.992 434.709L232.619 453.066L238.432 451.284C238.915 451.114 239.274 450.792 239.508 450.319C239.728 449.872 239.763 449.404 239.613 448.914L239.454 448.394L239.75 448.27L240.932 452.125C240.588 452.096 240.02 452.136 239.228 452.245C238.436 452.354 237.724 452.505 237.092 452.699L226.75 455.869C225.751 456.175 224.947 456.5 224.338 456.843C223.715 457.212 223.341 457.449 223.217 457.554L222.036 453.699L222.351 453.636L222.51 454.156Z" fill="#FDE4C3"/>
<path d="M220.743 443.796L220.703 444.524L211.317 446.538L210.982 445.89L211.015 445.13L220.401 443.116L220.743 443.796Z" fill="#FDE4C3"/>
<path d="M206.252 437.579C205.702 437.647 205.26 437.896 204.926 438.324C204.574 438.776 204.421 439.279 204.468 439.832L206.677 457.616C206.74 458.124 206.994 458.522 207.438 458.811C207.885 459.121 208.384 459.242 208.934 459.173L209.315 459.126L209.386 459.44L200.082 460.595C199.425 460.677 198.724 460.828 197.978 461.05C197.21 461.274 196.676 461.47 196.374 461.636L195.877 457.635L196.194 457.595L196.265 458.167C196.328 458.675 196.562 459.087 196.967 459.402C197.35 459.72 197.787 459.859 198.276 459.82L204.755 459.015L203.536 449.202L198.169 449.869C197.748 449.943 197.408 450.146 197.149 450.479C196.889 450.813 196.787 451.202 196.842 451.646L196.897 452.091L196.58 452.13L195.957 447.113L196.274 447.073L196.333 447.55C196.386 447.973 196.579 448.315 196.912 448.574C197.224 448.836 197.593 448.952 198.019 448.92L203.418 448.25L202.238 438.755L197.697 439.319C196.131 439.513 194.978 440.011 194.239 440.812C193.5 441.614 192.941 442.736 192.561 444.181L192.244 444.22L193.447 438.847L206.626 437.21L206.665 437.528L206.252 437.579Z" fill="#FDE4C3"/>
<path d="M166.858 461.321C167.392 461.321 167.85 461.13 168.235 460.746C168.619 460.384 168.822 459.936 168.844 459.403L168.859 442.891C168.86 441.653 168.787 440.48 168.638 439.371L168.575 438.795L168.863 438.795L186.286 457.435L186.3 441.499C186.301 440.965 186.109 440.507 185.726 440.122C185.342 439.759 184.883 439.577 184.35 439.577L183.742 439.576L183.742 439.256L190.334 439.262L190.334 439.582L189.726 439.582C189.193 439.581 188.734 439.762 188.35 440.125C187.965 440.508 187.773 440.977 187.772 441.532L187.757 458.14C187.756 459.441 187.83 460.604 187.978 461.628L188.041 462.14L187.721 462.14L170.298 443.5L170.284 459.372C170.305 459.927 170.507 460.386 170.891 460.749C171.274 461.133 171.733 461.325 172.266 461.326L172.874 461.326L172.874 461.646L166.282 461.64L166.282 461.32L166.858 461.321Z" fill="#FDE4C3"/>
<path d="M151.887 459.533C148.509 459.039 145.926 457.615 144.136 455.261C142.322 452.926 141.658 450.101 142.143 446.787C142.628 443.473 144.076 440.947 146.487 439.208C148.874 437.488 151.756 436.875 155.133 437.37L165.866 438.942L165.82 439.259L165.408 439.198C164.859 439.118 164.367 439.24 163.932 439.564C163.472 439.907 163.191 440.351 163.09 440.896L160.493 458.627C160.419 459.134 160.568 459.587 160.941 459.986C161.289 460.404 161.727 460.651 162.255 460.729L162.635 460.784L162.62 461.106L151.887 459.533ZM158.263 459.497L161.231 439.233L154.994 438.32C153.221 438.06 151.597 438.254 150.122 438.9C148.626 439.543 147.398 440.571 146.437 441.982C145.451 443.412 144.811 445.129 144.518 447.135C144.072 450.174 144.548 452.745 145.943 454.847C147.317 456.945 149.345 458.191 152.026 458.584L158.263 459.497Z" fill="#FDE4C3"/>
<path d="M134.306 451.816C133.114 453.317 131.72 454.145 130.125 454.3C128.529 454.456 125.993 453.914 122.517 452.675C121.793 452.417 119.975 451.735 117.063 450.628C114.955 449.808 113.241 448.676 111.921 447.232C110.602 445.787 109.773 444.11 109.435 442.2C109.069 440.304 109.259 438.31 110.004 436.22C111.129 433.066 113.044 430.872 115.748 429.639C118.425 428.42 121.371 428.383 124.587 429.529L134.804 433.173L134.667 433.464L134.305 433.335C133.803 433.155 133.313 433.162 132.837 433.355C132.354 433.567 131.996 433.904 131.763 434.365L125.283 452.54C127.816 453.375 129.734 453.618 131.037 453.267C131.715 453.078 132.26 452.854 132.67 452.592C133.073 452.351 133.522 452.013 134.017 451.578L134.306 451.816ZM123.323 451.841L130.202 432.551L124.264 430.434C121.712 429.524 119.337 429.673 117.139 430.883C114.921 432.085 113.297 434.133 112.265 437.026C111.584 438.935 111.347 440.742 111.555 442.447C111.735 444.165 112.335 445.658 113.355 446.928C114.354 448.19 115.698 449.122 117.386 449.724L123.323 451.841Z" fill="#FDE4C3"/>
<path d="M112.352 424.921C111.859 424.667 111.353 424.624 110.836 424.79C110.291 424.965 109.881 425.294 109.609 425.778L101.419 441.717C101.185 442.172 101.17 442.644 101.375 443.133C101.57 443.641 101.914 444.022 102.407 444.275L102.749 444.451L102.631 444.75L94.2913 440.465C93.7031 440.163 93.0382 439.893 92.2966 439.656C91.536 439.409 90.9842 439.269 90.641 439.237L92.4838 435.651L92.7684 435.797L92.5051 436.309C92.2711 436.765 92.2326 437.237 92.3894 437.725C92.5272 438.203 92.8095 438.564 93.2362 438.808L99.0425 441.791L103.562 432.996L98.7514 430.524C98.3622 430.348 97.9665 430.325 97.5643 430.454C97.1622 430.583 96.8587 430.847 96.654 431.246L96.4492 431.644L96.1646 431.498L98.4753 427.001L98.7599 427.147L98.5406 427.574C98.3456 427.953 98.3127 428.344 98.4418 428.746C98.552 429.139 98.792 429.442 99.1617 429.656L104 432.142L108.373 423.632L104.303 421.541C102.899 420.819 101.666 420.581 100.604 420.827C99.5423 421.073 98.4479 421.686 97.3208 422.666L97.0362 422.52L101.056 418.757L112.868 424.826L112.722 425.111L112.352 424.921Z" fill="#FDE4C3"/>
<path d="M72.4965 426.795L67.177 423.18L67.3569 422.915L67.5951 423.077C68.0362 423.377 68.5644 423.529 69.1797 423.535C69.783 423.558 70.3941 423.38 71.0128 423.001L87.0869 413.072C88.7111 412.086 89.6551 411.4 89.919 411.011L90.1572 411.173L86.063 433.192C85.9262 433.925 85.9885 434.573 86.2497 435.138C86.4812 435.708 86.8175 436.143 87.2586 436.443L87.4704 436.587L87.2905 436.851L81.3358 432.804L81.5157 432.539L81.7539 432.701C82.1244 432.953 82.4906 433.021 82.8526 432.906C83.185 432.797 83.4231 432.636 83.567 432.424C83.6989 432.23 83.7927 431.997 83.8484 431.726L87.7434 414.098L72.5478 424.044C72.3333 424.208 72.1601 424.387 72.0282 424.581C71.8843 424.793 71.8314 425.079 71.8696 425.441C71.8781 425.808 72.0677 426.117 72.4382 426.369L72.6764 426.531L72.4965 426.795Z" fill="#FDE4C3"/>
<path d="M80.9423 405.343C80.526 404.977 80.0468 404.811 79.5049 404.845C78.9328 404.882 78.4555 405.101 78.073 405.503L66.2323 418.954C65.894 419.339 65.7642 419.793 65.8429 420.317C65.9075 420.857 66.148 421.31 66.5643 421.677L66.8526 421.93L66.6651 422.192L59.6275 415.996C59.1311 415.559 58.5524 415.135 57.8913 414.724C57.2143 414.298 56.7133 414.028 56.3886 413.913L59.0527 410.886L59.2929 411.098L58.9123 411.53C58.574 411.914 58.4212 412.362 58.4538 412.874C58.4703 413.372 58.6557 413.791 59.0099 414.131L63.9099 418.445L70.4434 411.023L66.3841 407.449C66.0498 407.183 65.6718 407.064 65.2503 407.091C64.8288 407.118 64.47 407.299 64.174 407.635L63.878 407.972L63.6378 407.76L66.9785 403.965L67.2187 404.177L66.9016 404.537C66.6196 404.857 66.4921 405.228 66.5189 405.65C66.5298 406.057 66.6883 406.41 66.9944 406.708L71.0777 410.302L77.3998 403.12L73.965 400.097C72.7801 399.054 71.6427 398.521 70.5531 398.5C69.4634 398.479 68.2523 398.805 66.9197 399.48L66.6795 399.268L71.498 396.603L81.466 405.378L81.2545 405.618L80.9423 405.343Z" fill="#FDE4C3"/>
<path d="M68.7404 394.242C68.3688 393.83 67.9119 393.61 67.3696 393.583C66.7971 393.553 66.2978 393.716 65.8716 394.072L52.7079 405.946C52.3103 406.333 52.1047 406.806 52.0911 407.364C52.0473 407.921 52.2112 408.405 52.5827 408.817L52.8614 409.126L52.6237 409.34L47.9298 404.137L48.1674 403.922L48.446 404.231C48.9604 404.802 49.5989 405.016 50.3615 404.874C50.7277 404.802 51.0454 404.645 51.3147 404.402L65.4764 391.627L62.4114 388.229C61.354 387.057 60.2853 386.398 59.2053 386.252C58.1253 386.105 56.8847 386.291 55.4835 386.808L55.2692 386.57L60.3616 384.476L69.2566 394.337L69.019 394.551L68.7404 394.242Z" fill="#FDE4C3"/>
<path d="M40.5184 390.843C37.458 390.145 34.9188 388.29 32.9009 385.276C30.8711 382.245 30.1163 379.182 30.6365 376.086C31.139 373.003 32.8349 370.493 35.7243 368.558C38.6136 366.624 41.5885 366.005 44.6489 366.703C47.6916 367.413 50.2279 369.283 52.2577 372.314C54.2756 375.328 55.0333 378.376 54.5308 381.46C54.0106 384.555 52.3058 387.071 49.4165 389.005C46.5271 390.94 43.5611 391.553 40.5184 390.843ZM52.9844 380.416C53.6062 377.817 53.0981 375.294 51.46 372.848C49.8219 370.402 47.6889 368.981 45.0611 368.584C42.4213 368.169 39.772 368.852 37.1131 370.632C34.4542 372.413 32.8138 374.603 32.192 377.201C31.5583 379.782 32.0605 382.296 33.6986 384.742C35.3366 387.188 37.4756 388.619 40.1153 389.033C42.7432 389.43 45.3866 388.739 48.0455 386.958C50.7044 385.178 52.3507 382.997 52.9844 380.416Z" fill="#FDE4C3"/>
<path d="M24.8382 355.969C25.6885 355.571 26.5622 355.375 27.4592 355.379C29.1295 355.376 30.6101 356.049 31.9012 357.4C32.3565 357.87 32.679 358.308 32.8687 358.714C33.429 359.912 33.6901 361.05 33.6522 362.127L33.3624 362.263C33.012 360.708 32.2475 359.475 31.0688 358.566C30.0308 357.757 28.803 357.447 27.3854 357.639C26.9447 357.704 26.5504 357.818 26.2026 357.98C25.8547 358.143 25.6421 358.242 25.5648 358.279C24.2301 358.95 23.3247 359.809 22.8486 360.856C22.3532 361.911 22.3901 363.048 22.9594 364.266L24.5181 367.599L41.8239 359.508C42.3173 359.254 42.6663 358.867 42.8708 358.347C43.047 357.817 43.0176 357.301 42.7827 356.799L42.6065 356.422L42.8964 356.286L45.8646 362.635L45.5747 362.77L45.3985 362.393C45.1636 361.891 44.7909 361.547 44.2804 361.362C43.7415 361.166 43.2163 361.176 42.7048 361.392L26.5006 368.968C26.0445 369.252 25.7433 369.64 25.5967 370.133C25.4308 370.634 25.4608 371.127 25.6867 371.61L25.8493 371.958L25.573 372.122L22.0355 364.556C21.1681 362.701 20.9884 361.007 21.4963 359.474C21.985 357.951 23.0989 356.782 24.8382 355.969Z" fill="#FDE4C3"/>
<path d="M38.5082 346.904C38.3408 346.376 38.0161 345.986 37.5341 345.736C37.0253 345.472 36.5033 345.413 35.9681 345.56L18.8839 350.97C18.3958 351.124 18.0502 351.446 17.8471 351.936C17.6237 352.431 17.5957 352.944 17.7632 353.473L17.8791 353.839L17.5837 353.966L14.7535 345.027C14.5539 344.397 14.2772 343.735 13.9233 343.041C13.563 342.327 13.2736 341.837 13.055 341.571L16.8989 340.354L16.9955 340.659L16.4464 340.832C15.9582 340.987 15.596 341.292 15.3598 341.747C15.117 342.182 15.0596 342.637 15.1873 343.111L17.1578 349.334L26.5846 346.35L24.9522 341.194C24.8031 340.794 24.5411 340.496 24.1662 340.301C23.7913 340.107 23.3903 340.077 22.9632 340.212L22.5361 340.348L22.4395 340.043L27.2597 338.516L27.3562 338.822L26.8986 338.966C26.4919 339.095 26.1912 339.347 25.9966 339.722C25.7956 340.076 25.7493 340.46 25.8578 340.874L27.4998 346.06L36.6215 343.172L35.2403 338.809C34.7637 337.304 34.0643 336.261 33.142 335.681C32.2197 335.1 31.0139 334.754 29.5245 334.644L29.4279 334.339L34.9303 334.544L38.9388 347.204L38.6338 347.301L38.5082 346.904Z" fill="#FDE4C3"/>
<path d="M11.9493 328.517L12.2847 330.537L31.0992 327.414C31.6463 327.323 32.0884 327.055 32.4254 326.61C32.7378 326.147 32.8469 325.631 32.7525 325.063L32.6896 324.684L33.0001 324.6L34.1478 331.514L33.8321 331.566L33.764 331.156C33.6732 330.609 33.4069 330.177 32.9652 329.861C32.52 329.524 32.0221 329.391 31.4714 329.46L13.9512 332.369C13.4075 332.481 12.9795 332.768 12.667 333.231C12.3301 333.676 12.207 334.172 12.2978 334.72L12.366 335.13L12.0503 335.182L10.6353 326.659C10.3173 324.744 10.6041 323.15 11.4958 321.877C12.3664 320.608 13.654 319.832 15.3586 319.549C17.0423 319.27 18.5923 319.553 20.0086 320.399C21.4005 321.228 22.2204 322.389 22.4685 323.883C22.5634 323.543 22.7969 323.126 23.1689 322.632C23.5165 322.12 23.8938 321.657 24.3009 321.244C26.589 319.004 27.9928 317.56 28.5122 316.912C29.0107 316.267 29.3564 315.809 29.5495 315.539C29.7215 315.273 29.89 314.985 30.055 314.677C30.2201 314.368 30.343 314.067 30.4239 313.772C30.6172 313.113 30.6562 312.436 30.5409 311.741L30.8566 311.689L31.1448 313.425C31.2951 314.33 31.277 315.198 31.0906 316.029C30.8831 316.864 30.6442 317.509 30.3739 317.965C30.079 318.403 29.7982 318.796 29.5314 319.143C29.2401 319.472 28.275 320.433 26.6362 322.024C24.9973 323.615 24.0691 324.537 23.8515 324.789C23.6128 325.045 23.3865 325.31 23.1723 325.583C22.5686 326.375 22.3226 327.108 22.4344 327.782L22.1188 327.834C22.1119 327.662 22.0857 327.44 22.0403 327.166C21.9949 326.892 21.9284 326.557 21.841 326.161C21.3446 323.562 19.9777 322.102 17.7404 321.781C17.2985 321.725 16.8987 321.727 16.5409 321.786C16.1621 321.849 15.9201 321.889 15.8148 321.907C14.4118 322.183 13.3365 322.74 12.5889 323.577C11.8414 324.415 11.5339 325.429 11.6664 326.618C11.7292 327.126 11.8235 327.759 11.9493 328.517Z" fill="#FDE4C3"/>
<path d="M36.9597 303.454H8.79971V302.014H36.9597V303.454Z" fill="#FDE4C3"/>
<path d="M30.8797 281.143V280.727H31.1997V287.735H30.8797V287.319C30.8797 286.765 30.6877 286.285 30.3037 285.879C29.8984 285.474 29.4184 285.271 28.8637 285.271H9.66371L9.85571 288.695C9.98371 290.85 10.7624 291.927 12.1917 291.927C12.7677 291.927 13.2584 291.746 13.6637 291.383C14.069 290.999 14.293 290.402 14.3357 289.591H14.5277C14.5917 289.89 14.6237 290.189 14.6237 290.487C14.6237 291.426 14.2504 292.13 13.5037 292.599C13.077 292.877 12.6077 293.015 12.0957 293.015C10.2824 293.015 9.22637 291.639 8.92771 288.887C8.92771 288.866 8.86371 287.81 8.73571 285.719C8.58637 283.607 8.39437 281.943 8.15971 280.727L8.47971 280.663C8.62904 281.581 8.93837 282.231 9.40771 282.615C9.87704 282.999 10.5277 283.191 11.3597 283.191H28.8637C29.4184 283.17 29.8984 282.967 30.3037 282.583C30.6877 282.178 30.8797 281.698 30.8797 281.143Z" fill="#FDE4C3"/>
<path d="M9.11971 256.182C9.11971 256.715 9.31171 257.174 9.69571 257.558C10.0584 257.942 10.5064 258.144 11.0397 258.166H27.5517C28.789 258.166 29.9624 258.091 31.0717 257.942L31.6477 257.878V258.166L13.0237 275.606H28.9597C29.493 275.606 29.9517 275.414 30.3357 275.03C30.6984 274.646 30.8797 274.187 30.8797 273.654V273.046H31.1997V279.638H30.8797V279.03C30.8797 278.496 30.6984 278.038 30.3357 277.654C29.9517 277.27 29.4824 277.078 28.9277 277.078H12.3197C11.0184 277.078 9.85571 277.152 8.83171 277.302L8.31971 277.366V277.046L26.9437 259.606H11.0717C10.517 259.627 10.0584 259.83 9.69571 260.214C9.31171 260.598 9.11971 261.056 9.11971 261.59V262.198H8.79971V255.606H9.11971V256.182Z" fill="#FDE4C3"/>
<path d="M9.15171 242.091H11.8397V242.411H11.3597C10.933 242.411 10.5704 242.561 10.2717 242.859C9.95171 243.158 9.79171 243.531 9.79171 243.979V250.731H19.6797V245.323C19.6584 244.897 19.4984 244.534 19.1997 244.235C18.901 243.937 18.5384 243.787 18.1117 243.787H17.6317V243.467H22.6877V243.787H22.2077C21.781 243.787 21.4184 243.937 21.1197 244.235C20.821 244.513 20.661 244.865 20.6397 245.291V250.731H28.8637C29.4184 250.731 29.8984 250.529 30.3037 250.123C30.6877 249.718 30.8797 249.238 30.8797 248.683V248.267H31.1997V255.275H30.8797V254.859C30.8797 254.305 30.6877 253.835 30.3037 253.451C29.8984 253.046 29.4184 252.833 28.8637 252.811H10.9437C10.4317 252.811 10.005 253.025 9.66371 253.451C9.30104 253.857 9.11971 254.326 9.11971 254.859V255.243L8.79971 255.275V245.899C8.79971 245.238 8.73571 244.523 8.60771 243.755C8.47971 242.966 8.35171 242.411 8.22371 242.091H9.15171Z" fill="#FDE4C3"/>
<path d="M11.5837 236.921C9.42904 234.638 8.35171 231.683 8.35171 228.057C8.35171 224.409 9.42904 221.443 11.5837 219.161C13.717 216.878 16.5224 215.737 19.9997 215.737C23.477 215.737 26.293 216.878 28.4477 219.161C30.581 221.443 31.6477 224.409 31.6477 228.057C31.6477 231.683 30.581 234.638 28.4477 236.921C26.293 239.203 23.477 240.345 19.9997 240.345C16.5224 240.345 13.717 239.203 11.5837 236.921ZM27.7437 235.193C29.7064 233.379 30.6877 231.001 30.6877 228.057C30.6877 225.113 29.7064 222.745 27.7437 220.953C25.781 219.139 23.1997 218.233 19.9997 218.233C16.7997 218.233 14.2184 219.139 12.2557 220.953C10.293 222.745 9.31171 225.113 9.31171 228.057C9.31171 231.001 10.293 233.379 12.2557 235.193C14.2184 236.985 16.7997 237.881 19.9997 237.881C23.1997 237.881 25.781 236.985 27.7437 235.193Z" fill="#FDE4C3"/>
<path d="M9.79171 209.833V211.881H28.8637C29.4184 211.881 29.8984 211.689 30.3037 211.305C30.6877 210.899 30.8797 210.409 30.8797 209.833V209.449L31.1997 209.417V216.425H30.8797V216.009C30.8797 215.454 30.6877 214.985 30.3037 214.601C29.9197 214.195 29.4504 213.982 28.8957 213.961H11.1357C10.581 213.982 10.1117 214.195 9.72771 214.601C9.32237 214.985 9.11971 215.454 9.11971 216.009V216.425H8.79971V207.785C8.79971 205.843 9.34371 204.318 10.4317 203.209C11.4984 202.099 12.8957 201.545 14.6237 201.545C16.3304 201.545 17.813 202.078 19.0717 203.145C20.309 204.19 20.9277 205.47 20.9277 206.985C21.077 206.665 21.3757 206.291 21.8237 205.865C22.2504 205.417 22.6984 205.022 23.1677 204.681C25.7917 202.846 27.413 201.651 28.0317 201.097C28.629 200.542 29.045 200.147 29.2797 199.913C29.493 199.678 29.7064 199.422 29.9197 199.145C30.133 198.867 30.3037 198.59 30.4317 198.313C30.7304 197.694 30.8797 197.033 30.8797 196.329H31.1997V198.089C31.1997 199.006 31.0397 199.859 30.7197 200.649C30.3784 201.438 30.037 202.035 29.6957 202.441C29.333 202.825 28.9917 203.166 28.6717 203.465C28.3304 203.742 27.221 204.531 25.3437 205.833C23.4664 207.134 22.3997 207.891 22.1437 208.105C21.8664 208.318 21.5997 208.542 21.3437 208.777C20.6184 209.459 20.2557 210.142 20.2557 210.825H19.9357C19.957 210.654 19.9677 210.43 19.9677 210.153C19.9677 209.875 19.957 209.534 19.9357 209.129C19.8717 206.483 18.7624 204.819 16.6077 204.137C16.181 204.009 15.7864 203.945 15.4237 203.945C15.0397 203.945 14.7944 203.945 14.6877 203.945C13.2584 203.987 12.1064 204.361 11.2317 205.065C10.357 205.769 9.88771 206.718 9.82371 207.913C9.80237 208.425 9.79171 209.065 9.79171 209.833Z" fill="#FDE4C3"/>
<path d="M30.8797 170.771L30.8797 170.259H31.1997L31.1997 177.203H30.9117V176.723C30.9117 176.361 30.773 176.051 30.4957 175.795C30.2184 175.539 29.8984 175.433 29.5357 175.475L13.4397 176.915L28.3837 183.635C29.685 184.233 30.773 184.595 31.6477 184.723V185.043L13.8877 193.235L29.5357 194.611C29.877 194.654 30.197 194.547 30.4957 194.291C30.773 194.035 30.9117 193.726 30.9117 193.363V192.883H31.1997V199.091H30.8797V198.579C30.8797 197.982 30.6984 197.47 30.3357 197.043C29.973 196.595 29.4824 196.329 28.8637 196.243L8.35171 193.843V193.523L27.6477 184.595L8.35171 175.859V175.571L28.8637 173.107C29.4824 173.022 29.973 172.755 30.3357 172.307C30.6984 171.859 30.8797 171.347 30.8797 170.771Z" fill="#FDE4C3"/>
<path d="M31.3364 149.662L31.3439 149.406L31.6637 149.416L31.4533 156.613L31.1335 156.603L31.1419 156.315C31.155 155.868 31.026 155.533 30.7551 155.312C30.4634 155.068 30.1896 154.943 29.9337 154.935C29.6778 154.928 29.4207 154.963 29.1623 155.041L23.6648 156.929L23.4123 165.565L28.8193 167.868C29.0727 167.961 29.3274 168.011 29.5833 168.019C29.8178 168.026 30.0875 167.927 30.3923 167.722C30.6763 167.496 30.8249 167.159 30.838 166.711L30.8464 166.423L31.1663 166.432L30.9783 172.862L30.6585 172.852L30.6669 172.564C30.6825 172.031 30.5272 171.504 30.2009 170.982C29.8747 170.46 29.3857 170.03 28.734 169.691L11.7367 161.959C10.0325 161.119 8.94584 160.693 8.47671 160.679L8.48513 160.391L29.239 152.418C29.9087 152.139 30.4217 151.748 30.7778 151.247C31.134 150.745 31.3202 150.217 31.3364 149.662ZM22.4639 165.154L22.694 157.285L12.3141 160.823L22.4639 165.154Z" fill="#FDE4C3"/>
<path d="M15.5157 132.422C15.0113 132.334 14.5493 132.438 14.1297 132.733C13.689 133.024 13.4161 133.41 13.3107 133.889L12.2655 139.879L31.1482 143.174C31.6983 143.248 32.1954 143.129 32.6397 142.817C33.0877 142.484 33.3594 142.044 33.4547 141.497L33.5262 141.088L33.8415 141.143L32.6368 148.046L32.3215 147.991L32.393 147.581C32.4884 147.035 32.3799 146.54 32.0676 146.095C31.759 145.63 31.3439 145.341 30.8221 145.228L11.908 141.928L10.8628 147.917C10.7958 148.425 10.9203 148.891 11.2362 149.314C11.5348 149.713 11.9363 149.956 12.4407 150.044L12.9766 150.138L12.9531 150.458L8.98109 149.765C9.1622 149.472 9.38364 148.948 9.64542 148.192C9.90721 147.437 10.0949 146.733 10.2086 146.082L12.0679 135.427C12.2476 134.397 12.3226 133.533 12.2928 132.835C12.2457 132.112 12.2035 131.671 12.1661 131.513L16.1381 132.206L16.0516 132.516L15.5157 132.422Z" fill="#FDE4C3"/>
<path d="M35.1297 134.651C35.2844 134.118 35.2309 133.614 34.9693 133.138C34.6931 132.635 34.2916 132.297 33.7649 132.122L16.7097 127.168C16.1711 127.034 15.6608 127.108 15.179 127.39C14.7032 127.652 14.3879 128.049 14.2332 128.581L14.1172 128.981L13.8099 128.892L15.7645 122.162L16.0718 122.251L15.9557 122.651C15.801 123.183 15.8515 123.698 16.1072 124.194C16.3689 124.67 16.7631 124.995 17.2898 125.171L34.345 130.124C34.8777 130.279 35.3952 130.218 35.8975 129.942C36.3793 129.66 36.6975 129.252 36.8522 128.72L36.9683 128.32L37.2756 128.409L35.321 135.139L35.0137 135.05L35.1297 134.651Z" fill="#FDE4C3"/>
<path d="M21.0445 115.18C19.9906 112.223 20.1934 109.085 21.6529 105.765C23.121 102.425 25.3005 100.144 28.1917 98.9218C31.0632 97.6907 34.0907 97.7748 37.274 99.1742C40.4573 100.574 42.5759 102.752 43.6298 105.708C44.6642 108.657 44.4473 111.8 42.9792 115.14C41.5198 118.46 39.3542 120.736 36.4827 121.967C33.5916 123.189 30.5543 123.101 27.371 121.702C24.1877 120.302 22.0789 118.128 21.0445 115.18ZM36.5336 120.102C39.0601 119.231 40.9157 117.449 42.1004 114.754C43.2852 112.059 43.3398 109.496 42.2642 107.066C41.1972 104.616 39.199 102.747 36.2695 101.459C33.3401 100.171 30.6121 99.9626 28.0857 100.833C25.5678 101.683 23.7165 103.456 22.5317 106.151C21.347 108.846 21.2881 111.419 22.3551 113.869C23.4307 116.299 25.4332 118.158 28.3626 119.446C31.292 120.734 34.0157 120.952 36.5336 120.102Z" fill="#FDE4C3"/>
<path d="M42.267 72.7846C41.9682 73.2264 41.8703 73.7139 41.9733 74.2471C42.0586 74.7683 42.3162 75.1872 42.746 75.5036L56.4237 84.7538C57.4487 85.447 58.4624 86.0424 59.465 86.5402L59.978 86.8099L59.8167 87.0484L34.6194 91.0615L47.82 99.989C48.2618 100.288 48.7493 100.386 49.2825 100.283C49.798 100.168 50.2052 99.8895 50.504 99.4477L50.8446 98.944L51.1096 99.1233L47.4167 104.584L47.1517 104.405L47.4923 103.901C47.7911 103.459 47.8978 102.978 47.8125 102.456C47.7095 101.923 47.4283 101.501 46.9689 101.19L33.2116 91.8865C32.1336 91.1575 31.1287 90.568 30.1968 90.118L29.7369 89.8842L29.9161 89.6191L55.1134 85.606L41.9658 76.7144C41.4944 76.4213 41.0009 76.3323 40.4854 76.4472C39.9522 76.5501 39.5362 76.8225 39.2374 77.2643L38.8968 77.7679L38.6317 77.5887L42.3246 72.1282L42.5897 72.3075L42.267 72.7846Z" fill="#FDE4C3"/>
<path d="M52.7124 70.0236C51.6885 69.9138 50.9101 69.5824 50.3774 69.0292C49.8298 68.4607 49.4943 67.8508 49.3707 67.1998C49.2324 66.5333 49.322 65.7806 49.6395 64.9417C49.9422 64.0874 50.4624 63.305 51.1999 62.5947L60.6499 53.4935C61.1262 53.0347 61.6043 52.4855 62.084 51.8457C62.5791 51.1912 62.8975 50.7068 63.0392 50.3926L65.8362 53.2968L65.5835 53.4957L65.2061 53.1039C64.851 52.7351 64.417 52.5459 63.9042 52.5362C63.3766 52.5112 62.9287 52.6612 62.5605 52.9862L58.1812 57.2039L71.4779 71.0101C72.026 71.5484 72.6714 71.7265 73.4142 71.5443C73.763 71.4453 74.0681 71.27 74.3293 71.0184L74.6289 70.7298L74.8509 70.9603L69.8032 75.8217L69.5813 75.5912L69.8809 75.3026C70.2804 74.9179 70.4853 74.454 70.4955 73.911C70.521 73.3533 70.3565 72.8749 70.0019 72.476L56.6831 58.6468L51.8659 63.2862C50.6366 64.4701 50.1228 65.7202 50.3243 67.0366C50.4171 67.7173 50.6781 68.2805 51.1073 68.7261C51.5217 69.1563 52.0811 69.4912 52.7858 69.7308L52.7124 70.0236Z" fill="#FDE4C3"/>
<path d="M80.517 65.5574C80.9605 65.2243 81.2205 64.789 81.2969 64.2513C81.3776 63.6838 81.2599 63.1719 80.9439 62.7155L70.1826 48.3865C69.8751 47.9771 69.4568 47.7577 68.9277 47.7282C68.3859 47.6816 67.8931 47.8248 67.4496 48.1579L67.1426 48.3885L66.9248 48.1519L74.422 42.5214C74.9508 42.1242 75.4838 41.6439 76.021 41.0803C76.5753 40.504 76.942 40.0685 77.121 39.774L79.5423 42.998L79.2864 43.1902L78.9405 42.7296C78.633 42.3202 78.2254 42.0794 77.7176 42.0072C77.2269 41.9222 76.779 42.0185 76.3738 42.2961L71.154 46.2163L77.0919 54.1228L81.4162 50.8752C81.7446 50.6019 81.9385 50.2562 81.9979 49.838C82.0574 49.4199 81.9526 49.0317 81.6836 48.6735L81.4145 48.3152L81.6704 48.1231L84.7066 52.1659L84.4508 52.3581L84.1625 51.9742C83.9063 51.6331 83.5691 51.4328 83.1509 51.3733C82.7498 51.301 82.3723 51.3845 82.0183 51.6236L77.6684 54.8905L83.4142 62.5411L87.0732 59.7931C88.3355 58.8451 89.0879 57.8398 89.3304 56.7773C89.573 55.7147 89.4996 54.4625 89.1104 53.0206L89.3663 52.8285L90.9953 58.0882L80.3765 66.0631L80.1843 65.8072L80.517 65.5574Z" fill="#FDE4C3"/>
<path d="M103.999 50.8252C101.056 52.47 98.1311 52.8911 95.2229 52.0883C92.3332 51.2751 90.0304 49.3562 88.3144 46.3318C86.5879 43.2888 86.1167 40.3185 86.9008 37.4208C87.7036 34.5125 89.6264 32.1951 92.6694 30.4686C95.1558 29.0579 97.7124 28.4413 100.339 28.6186L103.123 32.2272L102.872 32.3693C101.559 31.0052 100.038 30.249 98.3107 30.1009C96.5727 29.9341 94.8502 30.335 93.1432 31.3036C90.7125 32.6827 89.2432 34.6323 88.7354 37.1525C88.2461 39.6621 88.7911 42.3086 90.3702 45.0918C91.9494 47.875 93.9376 49.7148 96.3348 50.6113C98.7401 51.4786 101.137 51.2716 103.525 49.9902C105.603 48.8112 107.017 47.2609 107.766 45.3395C108.574 43.2621 108.352 40.7516 107.099 37.808L107.321 37.6817L109.466 42.2408C109.347 45.9635 107.524 48.825 103.999 50.8252Z" fill="#FDE4C3"/>
<path d="M127.214 39.6385C127.731 39.4373 128.099 39.0881 128.317 38.591C128.548 38.0662 128.577 37.5514 128.403 37.0467L125.396 29.3233L113.2 34.0715L116.207 41.7949C116.408 42.3117 116.767 42.6756 117.284 42.8864C117.801 43.0971 118.318 43.1019 118.835 42.9007L119.223 42.7498L119.339 43.048L112.808 45.5904L112.692 45.2922L113.08 45.1413C113.597 44.9401 113.964 44.5909 114.183 44.0937C114.421 43.5888 114.45 43.0741 114.268 42.5495L107.814 25.9696C107.593 25.4605 107.223 25.1005 106.706 24.8897C106.209 24.6712 105.702 24.6625 105.185 24.8637L104.798 25.0147L104.682 24.7165L111.212 22.1741L111.328 22.4723L110.941 22.6232C110.424 22.8244 110.046 23.1775 109.808 23.6823C109.589 24.1795 109.571 24.6904 109.752 25.215L112.852 33.1769L125.048 28.4287L121.948 20.4668C121.65 19.7589 121.123 19.346 120.367 19.228C120.007 19.1851 119.658 19.2294 119.32 19.361L118.932 19.5119L118.816 19.2137L125.347 16.6713L125.463 16.9695L125.075 17.1204C124.558 17.3216 124.185 17.6846 123.954 18.2094C123.735 18.7065 123.717 19.2174 123.898 19.742L130.341 36.2921C130.562 36.8012 130.922 37.1651 131.419 37.3836C131.936 37.5944 132.453 37.5992 132.97 37.3979L133.357 37.247L133.473 37.5452L126.943 40.0876L126.827 39.7894L127.214 39.6385Z" fill="#FDE4C3"/>
<path d="M151.661 10.9185C151.141 11.0369 150.736 11.326 150.447 11.7857C150.153 12.2246 150.055 12.7064 150.153 13.2312L153.82 29.3308C154.095 30.5373 154.428 31.6647 154.82 32.7132L155.01 33.2606L154.729 33.3246L133.589 19.0386L137.128 34.5767C137.246 35.0967 137.535 35.5013 137.995 35.7904C138.45 36.0587 138.938 36.1337 139.458 36.0152L140.05 35.8802L140.122 36.1922L133.694 37.6561L133.623 37.3441L134.216 37.2091C134.736 37.0907 135.143 36.812 135.437 36.3731C135.726 35.9134 135.809 35.4132 135.686 34.8724L131.997 18.6791C131.708 17.4102 131.377 16.2932 131.004 15.3279L130.828 14.8429L131.14 14.7718L152.281 29.0578L148.756 13.5821C148.612 13.0461 148.313 12.6439 147.858 12.3755C147.398 12.0864 146.908 12.001 146.388 12.1195L145.795 12.2545L145.724 11.9425L152.152 10.4786L152.223 10.7906L151.661 10.9185Z" fill="#FDE4C3"/>
<path d="M158.525 12.812C160.631 10.4842 163.491 9.17745 167.107 8.89173C170.743 8.60434 173.784 9.44471 176.23 11.4128C178.673 13.3597 180.032 16.0664 180.306 19.5329C180.58 22.9995 179.664 25.8966 177.558 28.2244C175.451 30.531 172.579 31.8279 168.942 32.1153C165.326 32.401 162.297 31.5705 159.853 29.6236C157.408 27.6555 156.048 24.9381 155.774 21.4716C155.5 18.0051 156.417 15.1185 158.525 12.812ZM161.52 28.7857C163.483 30.5994 165.931 31.3902 168.866 31.1583C171.801 30.9264 174.084 29.7615 175.716 27.6638C177.369 25.5644 178.07 22.9196 177.818 19.7296C177.566 16.5395 176.458 14.0376 174.496 12.2239C172.555 10.4085 170.117 9.61682 167.182 9.84875C164.247 10.0807 161.953 11.2464 160.3 13.3458C158.668 15.4435 157.979 18.0874 158.231 21.2775C158.483 24.4675 159.579 26.9703 161.52 28.7857Z" fill="#FDE4C3"/>
<path d="M181.217 30.8916C181.771 30.9151 182.248 30.7432 182.648 30.3759C183.07 29.9881 183.304 29.5176 183.349 28.9643L184.101 11.2523C184.103 10.6972 183.91 10.2192 183.521 9.81839C183.155 9.39713 182.694 9.17474 182.14 9.15121L181.724 9.13356L181.738 8.81385L188.74 9.11115L188.726 9.43086L188.31 9.41322C187.543 9.38063 186.943 9.68611 186.51 10.3297C186.305 10.6412 186.194 10.9782 186.179 11.3405L185.37 30.3953L189.942 30.5895C191.519 30.6565 192.738 30.3559 193.599 29.6878C194.46 29.0198 195.197 28.0048 195.81 26.6429L196.13 26.6565L194.056 31.7571L180.788 31.1937L180.801 30.874L181.217 30.8916Z" fill="#FDE4C3"/>
<path d="M202.99 12.9901C205.595 11.2395 208.687 10.6619 212.264 11.2573C215.863 11.8562 218.611 13.4058 220.509 15.906C222.41 18.3852 223.076 21.3398 222.505 24.77C221.934 28.2001 220.345 30.7905 217.74 32.5412C215.138 34.2708 212.038 34.8361 208.439 34.2372C204.862 33.6417 202.122 32.1044 200.221 29.6253C198.323 27.1251 197.66 24.1599 198.231 20.7297C198.801 17.2996 200.388 14.7197 202.99 12.9901ZM202.041 29.2145C203.508 31.4483 205.693 32.8068 208.597 33.2902C211.501 33.7736 213.998 33.1943 216.088 31.5525C218.199 29.9142 219.517 27.5168 220.042 24.3602C220.568 21.2036 220.097 18.5084 218.631 16.2747C217.185 14.0444 215.011 12.6876 212.107 12.2043C209.203 11.7209 206.695 12.2984 204.584 13.9367C202.494 15.5785 201.186 17.9777 200.661 21.1343C200.136 24.2909 200.596 26.9843 202.041 29.2145Z" fill="#FDE4C3"/>
<path d="M231.223 40.0397C227.98 38.9741 225.67 37.0993 224.292 34.4151C222.935 31.7375 222.789 28.7436 223.853 25.4333C224.918 22.123 226.783 19.7759 229.446 18.3918C232.137 16.9939 235.107 16.8176 238.356 17.8628C241.159 18.7644 243.404 20.2486 245.092 22.3155L244.32 26.8067L244.046 26.7185C244.161 24.8283 243.688 23.1972 242.628 21.8253C241.595 20.4397 240.073 19.4235 238.062 18.7767C235.483 17.947 233.091 18.2083 230.886 19.5606C228.7 20.9195 227.118 23.122 226.138 26.1683C225.158 29.2145 225.16 31.9266 226.143 34.3046C227.153 36.6687 228.944 38.2758 231.517 39.1258C232.837 39.5504 234.161 39.7186 235.489 39.6304C236.837 39.5488 238.092 39.2354 239.254 38.6902L240.988 33.2983C241.132 32.8515 241.097 32.4707 240.885 32.1558C240.699 31.8272 240.363 31.5845 239.875 31.4277L239.388 31.2709L239.486 30.9663L245.457 32.8869L245.359 33.1915L244.902 33.0445C244.394 32.8812 243.969 32.879 243.627 33.0377C243.291 33.1762 243.061 33.4721 242.938 33.9254L241.321 38.9518C240.571 39.4724 239.742 39.8893 238.834 40.2024C237.927 40.5156 236.785 40.6861 235.409 40.7141C234.06 40.7283 232.664 40.5035 231.223 40.0397Z" fill="#FDE4C3"/>
<path d="M269.2 31.9818L268.796 31.788C268.219 31.5112 267.592 31.4117 266.916 31.4896C266.268 31.5574 265.656 31.7487 265.079 32.0635L254.966 38.5695L251.658 45.4651C251.418 45.9652 251.384 46.4811 251.555 47.0126C251.754 47.5341 252.114 47.9195 252.633 48.1686L252.979 48.3347L252.841 48.6232L246.551 45.6059L246.689 45.3174L247.064 45.4974C247.565 45.7373 248.071 45.7671 248.583 45.587C249.115 45.4161 249.51 45.0852 249.769 44.5943L253.105 37.641L252.009 25.7937C251.942 25.1936 251.718 24.6009 251.336 24.0156C250.974 23.4395 250.504 23.013 249.927 22.7362L249.523 22.5424L249.661 22.2539L256.759 25.6587L256.62 25.9472L256.245 25.7673C255.822 25.5643 255.403 25.5998 254.988 25.8738C254.771 26.03 254.611 26.2139 254.51 26.4255C254.418 26.6178 254.374 26.8332 254.377 27.0717L254.83 37.2264L263.335 31.3335C263.524 31.1873 263.664 31.018 263.756 30.8256C263.849 30.6333 263.878 30.399 263.845 30.1229C263.799 29.6274 263.564 29.2782 263.141 29.0752L262.795 28.9092L262.933 28.6206L269.338 31.6933L269.2 31.9818Z" fill="#FDE4C3"/>
<path d="M272.436 50.3029C270.696 50.8553 269.342 51.8219 268.376 53.2027C267.226 54.8456 267.024 56.6047 267.768 58.4799C268.193 59.5844 268.912 60.4914 269.926 61.2008C270.957 61.9226 271.989 62.3454 273.022 62.4694C274.952 62.7261 276.609 62.0505 277.995 60.4425C278.098 60.3324 278.193 60.2161 278.278 60.0938C278.731 59.4471 279.037 58.6195 279.196 57.6111C279.372 56.6149 279.278 55.5208 278.915 54.3289L276.801 47.3034C276.333 45.7777 276.545 44.3769 277.438 43.101C278.331 41.8251 279.494 41.0377 280.927 40.7387C282.372 40.4222 283.794 40.7533 285.192 41.7318C285.891 42.2211 286.59 42.8406 287.29 43.5903L288.338 44.3243L286.134 47.5857L285.872 47.4022C286.441 46.551 286.594 45.6815 286.33 44.7937C286.096 43.9006 285.533 43.1422 284.642 42.5184C283.768 41.9067 282.826 41.6901 281.816 41.8685C280.818 42.0294 279.995 42.573 279.346 43.4993C278.71 44.4082 278.563 45.4376 278.903 46.5875L281.075 53.8097C281.933 56.6758 281.61 59.1838 280.106 61.3336C278.98 62.9416 277.376 63.8759 275.293 64.1365C273.494 64.3621 271.678 63.8327 269.842 62.5483C268.724 61.7655 267.874 60.8585 267.294 59.8274C266.189 57.9085 266.119 55.9066 267.084 53.8215C267.227 53.5051 267.445 53.1372 267.739 52.7177C268.045 52.2808 268.577 51.7809 269.335 51.2181C270.106 50.6378 271.104 50.2165 272.329 49.9542L272.436 50.3029Z" fill="#FDE4C3"/>
<path d="M303.468 61.0922C303.806 60.7074 303.958 60.2591 303.925 59.7473C303.905 59.2194 303.718 58.7857 303.364 58.446L298.794 54.4357L286.151 68.8429C285.801 69.2738 285.644 69.7603 285.679 70.3022C285.73 70.8582 285.965 71.3191 286.381 71.6849L286.694 71.9593L286.483 72.1998L281.216 67.5774L281.427 67.3369L281.739 67.6113C282.156 67.9772 282.636 68.1424 283.178 68.1071C283.736 68.0858 284.198 67.8818 284.566 67.495L297.23 53.0638L292.66 49.0535C292.262 48.7318 291.799 48.5956 291.273 48.6451C290.778 48.6925 290.361 48.9086 290.023 49.2935L289.664 49.7024L289.403 49.5153L292.062 46.4848C292.218 46.7921 292.551 47.2541 293.06 47.871C293.568 48.4878 294.071 49.0143 294.568 49.4506L302.698 56.5847C303.484 57.2742 304.182 57.7879 304.794 58.126C305.436 58.462 305.834 58.6553 305.988 58.7057L303.329 61.7362L303.109 61.5011L303.468 61.0922Z" fill="#FDE4C3"/>
<path d="M321.927 78.3293L321.592 77.9419C321.299 77.6029 320.928 77.4019 320.479 77.3389C320.06 77.278 319.682 77.379 319.345 77.6418L309.756 85.9263C307.867 87.5581 305.826 88.2788 303.631 88.0884C301.437 87.898 299.482 86.81 297.767 84.8244C296.051 82.8388 295.23 80.7294 295.302 78.4962C295.404 76.2651 296.4 74.3337 298.288 72.7019L307.829 64.4593C308.313 64.0409 308.487 63.5242 308.35 62.9092C308.28 62.6318 308.14 62.3721 307.931 62.1299L307.596 61.7425L307.838 61.5333L312.085 66.4488L311.843 66.658L311.508 66.2706C311.201 65.9154 310.83 65.7144 310.395 65.6675C309.976 65.6067 309.59 65.7146 309.237 65.9914L299.987 73.983C298.228 75.5032 297.212 77.1987 296.939 79.0694C296.68 80.9563 297.234 82.6907 298.601 84.2727C299.968 85.8547 301.585 86.6988 303.453 86.8048C305.337 86.897 307.11 86.2247 308.773 84.7882L318.337 76.5246C318.663 76.2156 318.825 75.8494 318.826 75.4259C318.843 74.9885 318.698 74.5922 318.391 74.2371L318.056 73.8497L318.298 73.6405L322.169 78.1201L321.927 78.3293Z" fill="#FDE4C3"/>
<path d="M329.699 90.3474C331.483 93.2575 332.044 96.1536 331.384 99.0357C330.752 101.925 329.009 104.245 326.153 105.995C323.298 107.745 320.431 108.252 317.551 107.514C314.702 106.784 312.385 104.964 310.601 102.054L304.932 92.8048L305.205 92.6375L305.422 92.9922C305.712 93.4651 306.121 93.7649 306.649 93.8916C307.206 94.0254 307.727 93.9564 308.211 93.6847L323.489 84.3198C323.926 84.0522 324.178 83.6474 324.246 83.1052C324.344 82.5701 324.253 82.0752 323.974 81.6205L323.774 81.2931L324.03 81.0986L329.699 90.3474ZM325.586 85.4744L308.125 96.1772L311.419 101.552C312.356 103.08 313.545 104.203 314.986 104.921C316.438 105.657 318.014 105.942 319.714 105.776C321.443 105.617 323.171 105.008 324.899 103.949C327.518 102.343 329.188 100.332 329.908 97.9136C330.639 95.5138 330.296 93.159 328.88 90.8491L325.586 85.4744Z" fill="#FDE4C3"/>
<path d="M316.875 112.772C317.09 113.284 317.449 113.642 317.952 113.847C318.483 114.063 319.008 114.074 319.527 113.878L336.045 106.929C336.517 106.731 336.832 106.378 336.989 105.872C337.166 105.358 337.147 104.845 336.932 104.334L336.783 103.98L337.066 103.826L340.702 112.469C340.958 113.078 341.294 113.712 341.71 114.371C342.134 115.048 342.467 115.51 342.709 115.755L338.993 117.319L338.869 117.024L339.4 116.801C339.871 116.602 340.204 116.265 340.398 115.79C340.6 115.335 340.616 114.877 340.445 114.417L337.913 108.4L328.799 112.234L330.896 117.219C331.081 117.604 331.37 117.876 331.761 118.036C332.152 118.195 332.554 118.188 332.967 118.014L333.38 117.84L333.504 118.135L328.843 120.096L328.719 119.801L329.162 119.615C329.555 119.45 329.831 119.171 329.991 118.78C330.159 118.409 330.17 118.022 330.024 117.621L327.914 112.606L319.095 116.317L320.87 120.535C321.482 121.99 322.274 122.964 323.245 123.458C324.217 123.952 325.449 124.186 326.942 124.159L327.066 124.454L321.568 124.754L316.418 112.513L316.713 112.389L316.875 112.772Z" fill="#FDE4C3"/>
<path d="M349.772 145.123C349.646 144.604 349.352 144.204 348.888 143.921C348.445 143.633 347.962 143.541 347.439 143.646L331.39 147.53C330.187 147.821 329.065 148.169 328.022 148.575L327.477 148.773L327.409 148.493L341.409 127.162L325.92 130.91C325.401 131.035 325.001 131.33 324.718 131.793C324.456 132.252 324.387 132.74 324.513 133.259L324.656 133.85L324.345 133.925L322.794 127.518L323.105 127.443L323.248 128.034C323.374 128.552 323.658 128.955 324.101 129.243C324.564 129.526 325.066 129.602 325.605 129.472L341.747 125.566C343.012 125.259 344.124 124.913 345.084 124.527L345.567 124.345L345.642 124.656L331.642 145.987L347.069 142.254C347.603 142.103 348.001 141.798 348.264 141.339C348.546 140.876 348.625 140.385 348.5 139.866L348.357 139.275L348.668 139.2L350.218 145.607L349.907 145.683L349.772 145.123Z" fill="#FDE4C3"/>
<path d="M348.662 166.709C349.173 166.672 349.596 166.46 349.932 166.073C350.289 165.683 350.461 165.243 350.447 164.752L350.011 158.688L330.892 160.061C330.341 160.122 329.887 160.358 329.531 160.769C329.178 161.2 329.02 161.693 329.06 162.246L329.09 162.661L328.771 162.684L328.269 155.694L328.588 155.671L328.618 156.086C328.657 156.639 328.883 157.094 329.293 157.449C329.705 157.826 330.178 158.006 330.711 157.989L349.862 156.613L349.426 150.549C349.368 150.04 349.135 149.618 348.726 149.284C348.34 148.969 347.891 148.83 347.381 148.867L346.838 148.906L346.783 148.589L350.805 148.3C350.7 148.629 350.612 149.191 350.541 149.988C350.47 150.784 350.458 151.512 350.505 152.172L351.28 162.96C351.355 164.003 351.492 164.859 351.69 165.529C351.91 166.219 352.058 166.636 352.132 166.781L348.111 167.07L348.12 166.748L348.662 166.709Z" fill="#FDE4C3"/>
</svg>
