<svg width="486" height="634" viewBox="0 0 486 634" fill="none" xmlns="http://www.w3.org/2000/svg">
<path d="M474.869 229.715V231.463H440.689V229.715H474.869Z" fill="#FDE4C3"/>
<path d="M475.413 260.272L447.914 271.769V268.468L471.723 259.495L475.413 260.272ZM450.516 251.921C449.998 251.74 449.558 251.714 449.195 251.844C448.833 251.973 448.548 252.18 448.341 252.465C448.16 252.776 448.069 253.086 448.069 253.397V253.747H447.681V245.94H448.069C448.069 245.94 448.069 246.004 448.069 246.134C448.069 246.237 448.069 246.289 448.069 246.289C448.069 246.885 448.25 247.493 448.613 248.115C449.001 248.762 449.636 249.293 450.516 249.707V251.921ZM475.413 260.272L472.694 260.622L447.797 250.873V248.542L471.413 258.485C471.413 258.485 471.568 258.55 471.879 258.68C472.215 258.835 472.617 259.003 473.083 259.185C473.549 259.392 474.002 259.56 474.442 259.689C474.882 259.845 475.206 259.922 475.413 259.922V260.272ZM458.284 265.749H457.119V253.591H458.284V265.749ZM450.516 267.496V270.681C449.636 271.07 449.001 271.588 448.613 272.235C448.25 272.882 448.069 273.504 448.069 274.099C448.069 274.099 448.069 274.151 448.069 274.255C448.069 274.358 448.069 274.41 448.069 274.41H447.681V265.671H448.069V266.021C448.069 266.513 448.276 266.953 448.691 267.341C449.131 267.73 449.739 267.781 450.516 267.496Z" fill="#FDE4C3"/>
<path d="M474.869 301.597C474.869 304.368 474.3 306.789 473.16 308.86C472.047 310.958 470.467 312.589 468.422 313.754C466.376 314.946 463.994 315.541 461.275 315.541C458.556 315.541 456.174 314.946 454.128 313.754C452.109 312.589 450.529 310.958 449.39 308.86C448.25 306.789 447.681 304.368 447.681 301.597V293.285L448.846 293.246C448.846 293.246 448.846 293.518 448.846 294.062C448.846 294.632 448.846 295.331 448.846 296.159C448.846 297.014 448.846 297.855 448.846 298.684C448.846 299.513 448.846 300.199 448.846 300.743C448.846 301.312 448.846 301.597 448.846 301.597C448.846 303.824 449.364 305.753 450.4 307.384C451.435 309.042 452.885 310.323 454.75 311.23C456.614 312.162 458.789 312.628 461.275 312.628C463.761 312.628 465.936 312.162 467.8 311.23C469.665 310.323 471.115 309.042 472.151 307.384C473.186 305.727 473.704 303.798 473.704 301.597C473.704 301.597 473.704 301.299 473.704 300.704C473.704 300.134 473.704 299.409 473.704 298.529C473.704 297.674 473.704 296.807 473.704 295.926C473.704 295.072 473.704 294.347 473.704 293.751C473.704 293.156 473.704 292.858 473.704 292.858H474.869V301.597ZM474.869 293.945H447.681V291.421H474.869V293.945ZM450.516 291.537H447.681V288.43H448.069C448.069 288.43 448.069 288.508 448.069 288.663C448.069 288.844 448.069 288.935 448.069 288.935C448.069 289.608 448.302 290.178 448.768 290.644C449.26 291.136 449.843 291.395 450.516 291.421V291.537ZM472.034 291.537V291.421C472.707 291.421 473.277 291.175 473.743 290.683C474.235 290.191 474.481 289.608 474.481 288.935C474.481 288.935 474.481 288.857 474.481 288.702C474.481 288.547 474.481 288.469 474.481 288.469L474.869 288.43V291.537H472.034Z" fill="#FDE4C3"/>
<path d="M470.985 326.035H447.681V323.55H470.985V326.035ZM448.885 336.484L447.681 336.406V325.958H448.885V336.484ZM459.916 334.658H458.75V325.958H459.916V334.658ZM470.985 336.445H469.781V325.958H470.985V336.445ZM453.235 338.659L447.681 336.522V330.619L448.885 331.939C448.885 333.234 449.066 334.27 449.429 335.046C449.817 335.849 450.335 336.497 450.982 336.989C451.655 337.48 452.406 337.908 453.235 338.27V338.659ZM458.828 334.658H456.614V334.231H457.119C457.559 334.231 457.935 334.101 458.245 333.842C458.582 333.583 458.75 333.182 458.75 332.638H458.828V334.658ZM462.052 334.658H459.838V332.638H459.916C459.916 333.182 460.071 333.583 460.382 333.842C460.718 334.101 461.107 334.231 461.547 334.231H462.052V334.658ZM469.898 336.445H467.218V336.017H467.8C468.344 336.017 468.81 335.836 469.199 335.474C469.587 335.137 469.781 334.671 469.781 334.075H469.898V336.445ZM471.607 336.445H470.597L470.985 332.017C470.985 332.82 471.05 333.674 471.179 334.58C471.335 335.487 471.477 336.108 471.607 336.445ZM450.166 323.627L447.681 324.132V320.753H448.069C448.069 320.753 448.069 320.844 448.069 321.025C448.069 321.206 448.069 321.297 448.069 321.297C448.069 321.944 448.276 322.475 448.691 322.889C449.105 323.304 449.597 323.524 450.166 323.55V323.627ZM468.538 323.627V323.55C469.134 323.524 469.626 323.304 470.014 322.889C470.403 322.475 470.597 321.944 470.597 321.297C470.597 321.297 470.597 321.206 470.597 321.025C470.597 320.844 470.597 320.753 470.597 320.753H470.985V324.132L468.538 323.627Z" fill="#FDE4C3"/>
<path d="M470.985 355.894C470.985 358.457 470.519 360.671 469.587 362.536C468.655 364.4 467.308 365.837 465.548 366.847C463.813 367.857 461.741 368.362 459.333 368.362C456.925 368.362 454.853 367.857 453.118 366.847C451.384 365.837 450.037 364.4 449.079 362.536C448.147 360.671 447.681 358.457 447.681 355.894V347.621L448.846 347.543C448.846 349.356 448.846 350.87 448.846 352.087C448.846 353.33 448.846 354.275 448.846 354.923C448.846 355.57 448.846 355.894 448.846 355.894C448.846 358.898 449.778 361.254 451.642 362.963C453.533 364.698 456.096 365.565 459.333 365.565C462.57 365.565 465.12 364.698 466.985 362.963C468.875 361.254 469.82 358.898 469.82 355.894C469.82 355.894 469.82 355.557 469.82 354.884C469.82 354.211 469.82 353.227 469.82 351.932C469.82 350.637 469.82 349.045 469.82 347.155H470.985V355.894ZM470.985 348.164H447.681V345.64H470.985V348.164ZM450.205 345.717H447.681V342.921H448.069C448.069 342.921 448.069 342.999 448.069 343.154C448.069 343.335 448.069 343.426 448.069 343.426C448.069 344.047 448.276 344.565 448.691 344.979C449.131 345.394 449.636 345.614 450.205 345.64V345.717ZM468.461 345.717V345.64C469.082 345.614 469.587 345.381 469.975 344.941C470.39 344.526 470.597 344.008 470.597 343.387C470.597 343.387 470.597 343.309 470.597 343.154C470.597 342.999 470.597 342.921 470.597 342.921H470.985V345.717H468.461Z" fill="#FDE4C3"/>
<path d="M470.985 379.359H447.681V376.912H470.985V379.359ZM450.166 377.029H447.681V373.727H448.069C448.069 373.727 448.069 373.818 448.069 373.999C448.069 374.18 448.069 374.271 448.069 374.271C448.069 374.996 448.276 375.604 448.691 376.096C449.105 376.614 449.597 376.886 450.166 376.912V377.029ZM450.166 379.243V379.359C449.597 379.385 449.105 379.644 448.691 380.136C448.276 380.654 448.069 381.275 448.069 382C448.069 382 448.069 382.078 448.069 382.233C448.069 382.415 448.069 382.505 448.069 382.505L447.681 382.544V379.243H450.166ZM468.499 379.243H470.985V382.544L470.597 382.505C470.597 382.505 470.597 382.415 470.597 382.233C470.597 382.078 470.597 382 470.597 382C470.597 381.275 470.39 380.654 469.975 380.136C469.587 379.644 469.095 379.385 468.499 379.359V379.243ZM468.499 377.029V376.912C469.095 376.886 469.587 376.614 469.975 376.096C470.39 375.604 470.597 374.996 470.597 374.271C470.597 374.245 470.597 374.141 470.597 373.96C470.597 373.805 470.597 373.727 470.597 373.727H470.985V377.029H468.499Z" fill="#FDE4C3"/>
<path d="M457.469 410.743L452.147 410.316C451.112 409.643 450.218 408.762 449.467 407.675C448.716 406.587 448.134 405.357 447.72 403.985C447.331 402.612 447.137 401.162 447.137 399.635C447.163 397.019 447.668 394.741 448.652 392.799C449.636 390.882 451.034 389.406 452.847 388.371C454.659 387.335 456.821 386.817 459.333 386.817C461.871 386.817 464.046 387.335 465.858 388.371C467.671 389.406 469.069 390.882 470.053 392.799C471.037 394.741 471.529 397.019 471.529 399.635C471.529 401.24 471.322 402.858 470.908 404.49C470.493 406.121 469.911 407.532 469.16 408.723L463.683 409.578V409.228C466.065 408.659 467.774 407.506 468.81 405.771C469.846 404.062 470.364 402.004 470.364 399.596C470.364 397.55 469.911 395.776 469.004 394.275C468.124 392.799 466.855 391.646 465.198 390.818C463.567 390.015 461.612 389.614 459.333 389.614C457.106 389.614 455.164 390.015 453.507 390.818C451.875 391.646 450.607 392.812 449.7 394.313C448.82 395.815 448.367 397.589 448.341 399.635C448.341 401.577 448.652 403.324 449.273 404.878C449.92 406.458 450.917 407.739 452.264 408.723C453.61 409.707 455.345 410.264 457.469 410.394V410.743Z" fill="#FDE4C3"/>
<path d="M470.405 430.021L445.815 438.212L446.131 435.16L467.035 429.008L470.405 430.021ZM450.276 420.399C449.533 420.036 448.924 420.012 448.449 420.327C447.999 420.645 447.75 421.036 447.702 421.5L447.67 421.809L447.284 421.769L448.048 414.389L448.435 414.429C448.435 414.429 448.43 414.481 448.419 414.584C448.408 414.687 448.403 414.739 448.403 414.739C448.347 415.279 448.47 415.852 448.772 416.456C449.099 417.062 449.68 417.617 450.513 418.12L450.276 420.399ZM470.405 430.021L467.711 430.016L447.688 418.999L447.94 416.565L466.618 427.755C466.618 427.755 466.766 427.835 467.061 427.996C467.354 428.182 467.711 428.388 468.13 428.614C468.572 428.868 469.004 429.095 469.426 429.295C469.848 429.495 470.186 429.621 470.441 429.674L470.405 430.021ZM455.213 433.055L454.054 432.935L455.115 422.697L456.274 422.817L455.213 433.055ZM448.827 434.385L448.523 437.321C447.608 437.617 446.927 438.028 446.482 438.555C446.063 439.084 445.826 439.606 445.773 440.121C445.773 440.121 445.768 440.173 445.757 440.276C445.746 440.379 445.741 440.43 445.741 440.43L445.355 440.39L446.175 432.47L446.562 432.51L446.53 432.819C446.484 433.257 446.649 433.678 447.024 434.081C447.424 434.487 448.025 434.588 448.827 434.385Z" fill="#FDE4C3"/>
<path d="M464.841 457.183L442.353 451.531L442.968 449.082L465.457 454.734L464.841 457.183ZM462.701 466.337L461.571 466.053L466.768 445.372L467.898 445.656L462.701 466.337ZM461.646 466.072L459.047 465.418L459.151 465.004L459.754 465.156C460.281 465.288 460.765 465.223 461.205 464.96C461.663 464.728 461.978 464.326 462.148 463.755L462.224 463.774L461.646 466.072ZM463.304 466.488L462.324 466.242L463.761 462.118C463.635 462.62 463.528 463.154 463.439 463.719C463.369 464.315 463.324 464.865 463.305 465.367C463.285 465.87 463.285 466.243 463.304 466.488ZM445.36 449.764L442.949 449.158L443.64 446.408L444.017 446.503C444.01 446.528 443.992 446.603 443.96 446.729C443.922 446.879 443.903 446.955 443.903 446.955C443.752 447.557 443.823 448.123 444.118 448.65C444.412 449.178 444.833 449.524 445.379 449.688L445.36 449.764ZM444.792 452.024L444.763 452.137C444.205 452.023 443.671 452.129 443.162 452.455C442.652 452.781 442.322 453.245 442.171 453.848C442.171 453.848 442.155 453.911 442.123 454.036C442.085 454.187 442.067 454.262 442.067 454.262L441.69 454.168L442.381 451.418L444.792 452.024ZM466.266 447.689L466.191 447.67C466.311 447.086 466.227 446.571 465.938 446.125C465.669 445.71 465.27 445.436 464.743 445.304L464.14 445.152L464.244 444.738L466.844 445.391L466.266 447.689ZM468.501 445.808C468.369 446.015 468.196 446.332 467.982 446.758C467.761 447.21 467.541 447.716 467.32 448.274C467.125 448.839 466.964 449.373 466.838 449.875L467.522 445.562L468.501 445.808Z" fill="#FDE4C3"/>
<path d="M458.223 478.612L436.594 469.934L437.52 467.627L459.149 476.305L458.223 478.612ZM433.821 480.079L432.733 479.559L436.623 469.862L437.741 470.31L433.821 480.079ZM444.739 482.492L443.657 482.059L446.897 473.984L447.978 474.418L444.739 482.492ZM454.347 488.273L453.229 487.824L457.134 478.091L458.252 478.54L454.347 488.273ZM437.049 483.718L432.689 479.667L434.888 474.188L435.513 475.862C435.031 477.063 434.814 478.092 434.861 478.948C434.923 479.838 435.162 480.631 435.58 481.329C436.021 482.036 436.559 482.712 437.193 483.357L437.049 483.718ZM443.729 482.088L441.675 481.263L441.834 480.867L442.302 481.055C442.711 481.219 443.107 481.238 443.492 481.114C443.901 480.999 444.207 480.689 444.409 480.184L444.481 480.213L443.729 482.088ZM446.721 483.288L444.666 482.464L445.419 480.589L445.491 480.618C445.288 481.123 445.283 481.553 445.475 481.909C445.691 482.275 446.003 482.539 446.412 482.703L446.88 482.891L446.721 483.288ZM453.338 487.868L450.85 486.87L451.009 486.473L451.55 486.69C452.055 486.893 452.555 486.898 453.05 486.706C453.536 486.538 453.89 486.178 454.112 485.625L454.22 485.669L453.338 487.868ZM454.924 488.504L453.986 488.128L455.996 484.163C455.697 484.908 455.439 485.725 455.221 486.615C455.028 487.514 454.929 488.143 454.924 488.504ZM439.798 468.625L437.303 468.168L438.561 465.032L438.922 465.176C438.922 465.176 438.888 465.26 438.821 465.428C438.753 465.597 438.719 465.681 438.719 465.681C438.478 466.282 438.473 466.851 438.703 467.39C438.933 467.929 439.308 468.316 439.827 468.553L439.798 468.625ZM456.849 475.466L456.878 475.394C457.44 475.591 457.979 475.57 458.493 475.33C459.008 475.09 459.386 474.67 459.627 474.069C459.627 474.069 459.661 473.985 459.728 473.817C459.796 473.649 459.829 473.565 459.829 473.565L460.19 473.709L458.932 476.845L456.849 475.466Z" fill="#FDE4C3"/>
<path d="M443.525 509.14C442.219 511.346 440.69 513.014 438.939 514.144C437.187 515.274 435.296 515.825 433.267 515.797C431.259 515.783 429.219 515.162 427.147 513.936C425.075 512.71 423.549 511.22 422.57 509.467C421.591 507.715 421.164 505.792 421.289 503.7C421.437 501.621 422.163 499.478 423.469 497.272L427.682 490.152L428.724 490.678C427.801 492.238 427.03 493.542 426.41 494.589C425.777 495.659 425.296 496.472 424.966 497.03C424.636 497.587 424.471 497.865 424.471 497.865C422.942 500.45 422.544 502.953 423.278 505.373C424.021 507.829 425.786 509.881 428.571 511.529C431.357 513.178 433.994 513.73 436.482 513.186C438.979 512.678 440.992 511.132 442.522 508.547C442.522 508.547 442.693 508.257 443.036 507.678C443.379 507.098 443.88 506.251 444.539 505.137C445.199 504.023 446.01 502.653 446.972 501.026L447.975 501.619L443.525 509.14ZM447.461 502.488L427.405 490.62L428.691 488.447L448.747 500.316L447.461 502.488ZM430.824 489.8L428.651 488.514L430.075 486.107L430.41 486.305C430.41 486.305 430.37 486.372 430.291 486.506C430.199 486.662 430.152 486.74 430.152 486.74C429.836 487.274 429.75 487.826 429.896 488.393C430.064 488.974 430.386 489.42 430.863 489.733L430.824 489.8ZM446.534 499.097L446.574 499.03C447.122 499.324 447.675 499.381 448.234 499.2C448.801 499.054 449.243 498.714 449.56 498.179C449.56 498.179 449.599 498.112 449.678 497.978C449.758 497.845 449.797 497.778 449.797 497.778L450.131 497.976L448.707 500.382L446.534 499.097Z" fill="#FDE4C3"/>
<path d="M423.112 543.925L402.897 525.743L404.585 523.866L424.801 542.048L423.112 543.925ZM407.398 541.649L406.531 540.87L412.505 534.228L413.371 535.007L407.398 541.649ZM416.1 551.722L415.204 550.917L422.295 543.033L423.19 543.838L416.1 551.722ZM406.589 540.922L404.683 539.208L404.943 538.919L405.376 539.308C405.761 539.655 406.209 539.814 406.721 539.787C407.253 539.777 407.691 539.58 408.038 539.195L408.095 539.247L406.589 540.922ZM409.246 543.312L407.34 541.597L408.846 539.922L408.904 539.974C408.577 540.377 408.427 540.834 408.454 541.346C408.5 541.875 408.716 542.313 409.101 542.659L409.506 543.023L409.246 543.312ZM415.291 550.995L413.356 549.255L413.616 548.966L414.049 549.355C414.434 549.702 414.891 549.852 415.42 549.805C415.952 549.795 416.39 549.598 416.737 549.213L416.823 549.291L415.291 550.995ZM416.619 552.19L415.782 551.436L419.268 548.199C418.887 548.622 418.518 549.091 418.16 549.605C417.785 550.138 417.454 550.642 417.168 551.115C416.881 551.589 416.698 551.947 416.619 552.19ZM406.616 525.849L404.507 523.953L406.585 521.642L406.874 521.902C406.874 521.902 406.822 521.96 406.718 522.075C406.597 522.21 406.536 522.278 406.536 522.278C406.086 522.778 405.879 523.357 405.913 524.016C405.95 524.711 406.21 525.293 406.694 525.762L406.616 525.849ZM422.615 540.238L422.693 540.151C423.193 540.602 423.781 540.8 424.457 540.746C425.152 540.709 425.724 540.44 426.174 539.94C426.174 539.94 426.226 539.882 426.33 539.766C426.434 539.651 426.486 539.593 426.486 539.593L426.801 539.824L424.723 542.134L422.615 540.238ZM405.083 527.553L405.005 527.639C404.487 527.208 403.89 527.002 403.212 527.019C402.537 527.073 401.974 527.351 401.524 527.851C401.524 527.851 401.472 527.909 401.368 528.024C401.264 528.14 401.203 528.207 401.186 528.227L400.897 527.967L402.975 525.657L405.083 527.553Z" fill="#FDE4C3"/>
<path d="M404.242 557.761L400.476 561.067C399.562 561.87 398.651 562.48 397.743 562.899C396.815 563.334 395.919 563.569 395.055 563.605C394.171 563.657 393.336 563.511 392.551 563.167C391.766 562.822 391.049 562.28 390.4 561.541C389.682 560.724 389.211 559.794 388.985 558.752C388.759 557.71 388.8 556.657 389.107 555.595C389.395 554.549 389.934 553.593 390.725 552.727C390.274 552.881 389.63 552.913 388.792 552.822C387.934 552.748 387.153 552.624 386.449 552.449C386.449 552.449 386.169 552.385 385.608 552.257C385.065 552.149 384.377 552.012 383.543 551.848C382.708 551.72 381.899 551.603 381.117 551.498C380.315 551.409 379.604 551.344 378.982 551.304C378.342 551.281 377.741 551.343 377.181 551.49C376.619 551.673 376.075 551.996 375.55 552.457L375.293 552.165L376.198 551.371C377.268 550.431 378.273 549.79 379.213 549.447C380.133 549.122 380.978 548.966 381.748 548.979C382.535 549.012 383.246 549.076 383.882 549.173C384.045 549.202 384.444 549.283 385.077 549.415C385.709 549.585 386.395 549.758 387.135 549.934C387.876 550.111 388.545 550.265 389.142 550.395C389.756 550.545 390.127 550.633 390.253 550.66C391.087 550.824 391.927 550.879 392.775 550.824C393.64 550.788 394.354 550.523 394.918 550.027L395.175 550.319C395.175 550.319 395.01 550.446 394.682 550.7C394.371 550.973 393.98 551.333 393.511 551.78C392.983 552.278 392.473 552.795 391.979 553.332C391.502 553.888 391.184 554.546 391.025 555.306C390.846 556.084 390.979 557.001 391.424 558.057C391.534 558.339 391.698 558.644 391.915 558.97C392.133 559.296 392.388 559.606 392.681 559.9C393.179 560.428 393.713 560.82 394.283 561.078C394.834 561.352 395.421 561.491 396.045 561.495C396.649 561.516 397.262 561.409 397.882 561.174C398.503 560.939 399.114 560.575 399.715 560.082C400.663 559.318 401.47 558.627 402.134 558.01C402.798 557.392 403.138 557.093 403.155 557.113C403.172 557.132 403.27 557.184 403.448 557.269C403.623 557.391 403.8 557.494 403.978 557.579C404.154 557.7 404.242 557.761 404.242 557.761ZM403.891 558.069L388.515 540.556L390.383 538.916L405.759 556.429L403.891 558.069ZM391.936 540.861L389.945 539.301L392.426 537.122L392.683 537.414C392.683 537.414 392.615 537.474 392.478 537.594C392.342 537.713 392.274 537.773 392.274 537.773C391.807 538.183 391.555 538.68 391.517 539.265C391.479 539.85 391.638 540.365 391.994 540.81L391.936 540.861ZM404.057 554.667L404.116 554.615C404.528 555.046 405.018 555.27 405.586 555.289C406.153 555.307 406.671 555.112 407.138 554.702C407.138 554.702 407.206 554.642 407.342 554.522C407.478 554.403 407.546 554.343 407.546 554.343L407.802 554.635L405.322 556.813L404.057 554.667ZM390.243 542.347L390.155 542.424C389.76 542.013 389.27 541.789 388.685 541.751C388.101 541.713 387.575 541.899 387.108 542.309C387.108 542.309 387.049 542.36 386.933 542.463C386.797 542.582 386.728 542.642 386.728 542.642L386.443 542.376L388.953 540.172L390.243 542.347Z" fill="#FDE4C3"/>
<path d="M375.817 580.581C374.3 581.573 372.718 582.252 371.07 582.618C369.414 583.02 367.791 583.091 366.198 582.833C364.585 582.588 363.085 582.022 361.7 581.133C360.329 580.266 359.147 579.074 358.155 577.557C357.163 576.04 356.538 574.469 356.28 572.844C356.036 571.24 356.125 569.65 356.549 568.073C356.951 566.511 357.66 565.042 358.678 563.665C359.688 562.324 360.952 561.157 362.469 560.165C363.986 559.173 365.562 558.484 367.196 558.096C368.844 557.73 370.474 557.669 372.088 557.914C373.68 558.172 375.162 558.735 376.533 559.602C377.918 560.49 379.107 561.693 380.099 563.21C381.091 564.727 381.709 566.288 381.953 567.892C382.211 569.517 382.14 571.111 381.738 572.673C381.314 574.249 380.597 575.708 379.587 577.049C378.591 578.412 377.334 579.589 375.817 580.581ZM363.107 561.141C361.503 562.189 360.306 563.529 359.516 565.159C358.726 566.789 358.405 568.546 358.553 570.429C358.701 572.312 359.371 574.164 360.561 575.984C361.765 577.827 363.193 579.183 364.844 580.052C366.51 580.943 368.248 581.354 370.058 581.284C371.869 581.214 373.576 580.654 375.18 579.606C376.762 578.571 377.948 577.239 378.738 575.609C379.529 573.978 379.849 572.222 379.701 570.338C379.567 568.477 378.898 566.625 377.693 564.783C376.503 562.963 375.075 561.607 373.41 560.716C371.744 559.825 370.006 559.414 368.196 559.484C366.385 559.554 364.689 560.106 363.107 561.141Z" fill="#FDE4C3"/>
<path d="M354.242 593.566L326.292 583.926L324.23 580.297L352.228 590.043L354.242 593.566ZM345.343 574.016L344.354 571.821L347.009 570.624L347.169 570.978C347.169 570.978 347.075 571.02 346.886 571.106C346.673 571.201 346.567 571.249 346.567 571.249C346.024 571.494 345.644 571.879 345.426 572.403C345.208 572.927 345.216 573.449 345.45 573.969L345.343 574.016ZM343.856 574.687C343.622 574.168 343.236 573.816 342.699 573.632C342.138 573.459 341.598 573.489 341.079 573.724C341.079 573.724 340.984 573.766 340.795 573.851C340.583 573.947 340.477 573.995 340.477 573.995L340.317 573.641L342.973 572.444L343.963 574.639L343.856 574.687ZM354.242 593.566L351.825 592.269L342.867 572.492L344.46 571.773L352.282 589.124C352.825 590.328 353.352 591.34 353.864 592.16C354.352 592.991 354.596 593.406 354.596 593.406L354.242 593.566ZM334.032 602.038L326.274 584.829C325.933 584.074 325.58 583.352 325.213 582.666C324.857 582.002 324.555 581.457 324.305 581.03C324.043 580.637 323.912 580.44 323.912 580.44L324.23 580.297L326.634 581.471L335.59 601.335L334.032 602.038ZM333.148 599.795L334.138 601.99L331.482 603.187L331.323 602.833C331.323 602.833 331.429 602.785 331.641 602.689C331.83 602.604 331.925 602.562 331.925 602.562C332.444 602.328 332.824 601.943 333.066 601.408C333.284 600.884 333.276 600.362 333.042 599.842L333.148 599.795ZM334.6 599.14C334.858 599.649 335.255 599.995 335.793 600.179C336.33 600.363 336.87 600.332 337.413 600.087C337.413 600.087 337.519 600.04 337.732 599.944C337.921 599.859 338.015 599.816 338.015 599.816L338.175 600.17L335.519 601.367L334.529 599.172L334.6 599.14Z" fill="#FDE4C3"/>
<path d="M313.196 608.951L306.4 586.781L308.814 586.041L315.61 608.211L313.196 608.951ZM304.254 611.854L303.913 610.74L324.3 604.491L324.642 605.605L304.254 611.854ZM303.936 610.814L303.15 608.252L303.559 608.127L303.741 608.721C303.9 609.241 304.206 609.621 304.659 609.861C305.095 610.134 305.601 610.195 306.178 610.046L306.201 610.12L303.936 610.814ZM304.437 612.448L304.141 611.483L308.414 610.579C307.918 610.731 307.406 610.915 306.877 611.131C306.33 611.38 305.837 611.626 305.397 611.87C304.957 612.113 304.637 612.306 304.437 612.448ZM309.468 588.44L308.74 586.064L311.451 585.233L311.565 585.604C311.54 585.612 311.466 585.635 311.342 585.672C311.193 585.718 311.119 585.741 311.119 585.741C310.525 585.923 310.078 586.276 309.779 586.802C309.479 587.327 309.4 587.865 309.543 588.418L309.468 588.44ZM307.24 589.123L307.129 589.158C306.937 588.62 306.57 588.218 306.028 587.951C305.486 587.684 304.917 587.642 304.323 587.824C304.323 587.824 304.261 587.843 304.137 587.881C303.989 587.926 303.915 587.949 303.915 587.949L303.801 587.578L306.512 586.747L307.24 589.123ZM322.058 605.259L322.035 605.185C322.597 604.986 322.994 604.647 323.227 604.17C323.443 603.725 323.471 603.242 323.311 602.722L323.129 602.128L323.538 602.003L324.323 604.565L322.058 605.259ZM324.824 606.199C324.578 606.193 324.218 606.209 323.742 606.247C323.241 606.292 322.695 606.364 322.102 606.465C321.518 606.59 320.978 606.728 320.483 606.88L324.528 605.234L324.824 606.199Z" fill="#FDE4C3"/>
<path d="M298.927 601.504L287.534 603.948L287.127 603.161L287.167 602.239L298.56 599.795L298.975 600.619L298.927 601.504Z" fill="#FDE4C3"/>
<path d="M277.818 616.776L274.946 593.649L277.413 593.343L280.285 616.47L277.818 616.776ZM264.726 596.132L264.654 594.927L275.023 593.64L275.171 594.835L264.726 596.132ZM267.897 606.854L267.753 605.697L276.387 604.625L276.531 605.781L267.897 606.854ZM267.488 618.059L267.34 616.864L277.747 615.572L277.895 616.767L267.488 618.059ZM263.103 600.717L264.539 594.942L270.397 594.214L269.235 595.572C267.95 595.731 266.945 596.039 266.219 596.494C265.47 596.979 264.891 597.573 264.483 598.276C264.078 599.004 263.746 599.802 263.489 600.669L263.103 600.717ZM267.763 605.774L267.49 603.577L267.914 603.525L267.976 604.026C268.03 604.463 268.205 604.819 268.5 605.096C268.799 605.398 269.218 605.515 269.757 605.448L269.767 605.526L267.763 605.774ZM268.16 608.974L267.887 606.777L269.891 606.528L269.901 606.605C269.361 606.672 268.982 606.875 268.764 607.216C268.548 607.582 268.467 607.983 268.522 608.42L268.584 608.921L268.16 608.974ZM267.354 616.98L267.024 614.32L267.448 614.268L267.519 614.846C267.586 615.386 267.824 615.826 268.231 616.166C268.613 616.51 269.1 616.646 269.691 616.572L269.705 616.688L267.354 616.98ZM267.565 618.676L267.44 617.674L271.882 617.514C271.085 617.612 270.245 617.782 269.362 618.022C268.482 618.288 267.883 618.506 267.565 618.676ZM277.642 595.819L276.834 593.415L280.188 592.998L280.236 593.384C280.236 593.384 280.146 593.395 279.966 593.417C279.786 593.44 279.696 593.451 279.696 593.451C279.054 593.531 278.552 593.802 278.192 594.264C277.832 594.726 277.674 595.241 277.719 595.81L277.642 595.819ZM279.906 614.051L279.983 614.042C280.082 614.629 280.361 615.091 280.82 615.425C281.279 615.759 281.83 615.887 282.473 615.807C282.473 615.807 282.563 615.796 282.742 615.773C282.922 615.751 283.012 615.74 283.012 615.74L283.06 616.125L279.707 616.542L279.906 614.051Z" fill="#FDE4C3"/>
<path d="M255.034 619.734L233.534 599.439L233.15 595.283L254.649 615.694L255.034 619.734ZM254.976 598.255L254.978 595.847L257.891 595.849L257.891 596.238C257.891 596.238 257.787 596.238 257.58 596.237C257.347 596.237 257.23 596.237 257.23 596.237C256.635 596.237 256.13 596.43 255.715 596.818C255.3 597.206 255.093 597.685 255.092 598.255L254.976 598.255ZM253.344 598.253C253.345 597.684 253.138 597.204 252.724 596.816C252.284 596.427 251.78 596.232 251.21 596.232C251.21 596.232 251.106 596.232 250.899 596.231C250.666 596.231 250.55 596.231 250.55 596.231L250.55 595.843L253.463 595.845L253.461 598.253L253.344 598.253ZM255.034 619.734L253.366 617.557L253.347 595.845L255.094 595.847L255.077 614.879C255.076 616.2 255.14 617.339 255.268 618.297C255.371 619.255 255.422 619.734 255.422 619.734L255.034 619.734ZM233.128 619.131L233.145 600.255C233.146 599.426 233.121 598.623 233.07 597.846C233.019 597.096 232.967 596.474 232.916 595.982C232.839 595.516 232.8 595.283 232.8 595.283L233.15 595.283L234.857 597.343L234.837 619.133L233.128 619.131ZM233.247 616.723L233.245 619.132L230.331 619.129L230.332 618.74C230.332 618.74 230.448 618.741 230.681 618.741C230.889 618.741 230.992 618.741 230.992 618.741C231.562 618.742 232.067 618.548 232.507 618.16C232.922 617.772 233.13 617.293 233.13 616.723L233.247 616.723ZM234.839 616.725C234.865 617.295 235.084 617.774 235.498 618.163C235.912 618.551 236.417 618.746 237.012 618.747C237.012 618.747 237.129 618.747 237.362 618.747C237.569 618.747 237.673 618.747 237.673 618.747L237.672 619.136L234.759 619.133L234.762 616.725L234.839 616.725Z" fill="#FDE4C3"/>
<path d="M208.02 616.622C205.483 616.25 203.36 615.468 201.651 614.276C199.941 613.083 198.714 611.543 197.97 609.654C197.223 607.791 197.023 605.668 197.372 603.285C197.721 600.903 198.521 598.926 199.772 597.356C201.022 595.786 202.639 594.662 204.623 593.984C206.603 593.332 208.861 593.192 211.397 593.563L219.583 594.762L219.491 595.926C217.698 595.664 216.199 595.444 214.995 595.268C213.765 595.088 212.83 594.951 212.189 594.857C211.549 594.763 211.228 594.716 211.228 594.716C208.256 594.281 205.79 594.862 203.829 596.459C201.838 598.077 200.608 600.488 200.139 603.691C199.67 606.893 200.159 609.543 201.605 611.639C203.022 613.757 205.217 615.033 208.189 615.469C208.189 615.469 208.522 615.518 209.188 615.615C209.854 615.713 210.828 615.855 212.109 616.043C213.39 616.231 214.965 616.461 216.836 616.735L216.667 617.888L208.02 616.622ZM215.668 617.742L219.045 594.683L221.543 595.049L218.166 618.108L215.668 617.742ZM221.1 597.536L221.466 595.038L224.233 595.443L224.177 595.827C224.177 595.827 224.1 595.816 223.946 595.794C223.767 595.767 223.677 595.754 223.677 595.754C223.062 595.664 222.52 595.794 222.05 596.144C221.576 596.52 221.285 596.987 221.177 597.547L221.1 597.536ZM218.455 615.598L218.532 615.61C218.467 616.228 218.624 616.762 219.004 617.21C219.354 617.68 219.836 617.96 220.451 618.05C220.451 618.05 220.528 618.061 220.682 618.084C220.835 618.106 220.912 618.117 220.912 618.117L220.856 618.502L218.089 618.096L218.455 615.598Z" fill="#FDE4C3"/>
<path d="M160.758 608.999C158.149 608.069 156.06 606.719 154.491 604.95C152.889 603.197 151.883 601.161 151.473 598.843C151.038 596.516 151.277 594.072 152.19 591.511C153.104 588.95 154.465 586.907 156.274 585.38C158.05 583.869 160.117 582.929 162.475 582.56C164.809 582.183 167.28 582.459 169.89 583.39L177.719 586.182L177.365 587.292C177.365 587.292 177.108 587.201 176.596 587.018C176.06 586.827 175.401 586.592 174.621 586.314C173.816 586.027 173.023 585.744 172.243 585.466C171.462 585.188 170.816 584.957 170.304 584.775C169.767 584.583 169.499 584.488 169.499 584.488C167.401 583.74 165.41 583.58 163.526 584.007C161.617 584.426 159.923 585.362 158.443 586.813C156.939 588.256 155.769 590.148 154.934 592.49C154.099 594.831 153.808 597.037 154.06 599.106C154.287 601.166 155.007 602.962 156.22 604.495C157.434 606.027 159.077 607.163 161.15 607.902C161.15 607.902 161.43 608.002 161.991 608.202C162.528 608.393 163.211 608.637 164.04 608.932C164.845 609.219 165.662 609.511 166.491 609.806C167.296 610.093 167.979 610.337 168.54 610.537C169.101 610.737 169.381 610.837 169.381 610.837L168.99 611.935L160.758 608.999ZM167.966 611.569L177.097 585.96L179.475 586.808L170.344 612.417L167.966 611.569ZM178.413 589.439L179.366 586.769L182.292 587.812L182.162 588.178C182.162 588.178 182.089 588.152 181.942 588.1C181.772 588.039 181.686 588.009 181.686 588.009C181.052 587.783 180.437 587.811 179.842 588.093C179.213 588.391 178.774 588.853 178.523 589.479L178.413 589.439ZM171.186 609.707L171.296 609.747C171.07 610.381 171.11 611 171.417 611.604C171.715 612.233 172.181 612.66 172.816 612.886C172.816 612.886 172.889 612.912 173.035 612.965C173.181 613.017 173.255 613.043 173.255 613.043L173.161 613.422L170.234 612.378L171.186 609.707Z" fill="#FDE4C3"/>
<path d="M136.224 594.494L146.875 573.765L149.086 574.901L138.435 595.63L136.224 594.494ZM137.031 570.061L137.651 569.026L146.944 573.801L146.394 574.872L137.031 570.061ZM133.614 580.707L134.146 579.671L141.885 583.647L141.352 584.683L133.614 580.707ZM126.965 589.736L127.516 588.665L136.843 593.458L136.293 594.529L126.965 589.736ZM133.108 572.936L137.547 568.972L142.798 571.671L141.073 572.138C139.922 571.546 138.918 571.234 138.061 571.202C137.17 571.18 136.357 571.345 135.624 571.696C134.878 572.07 134.155 572.543 133.454 573.114L133.108 572.936ZM134.111 579.74L135.123 577.77L135.503 577.966L135.272 578.415C135.071 578.806 135.014 579.199 135.102 579.594C135.179 580.012 135.459 580.345 135.943 580.594L135.907 580.663L134.111 579.74ZM132.637 582.607L133.649 580.638L135.446 581.561L135.41 581.63C134.926 581.381 134.498 581.336 134.126 581.494C133.742 581.675 133.449 581.962 133.248 582.353L133.017 582.802L132.637 582.607ZM127.462 588.769L128.687 586.385L129.067 586.581L128.801 587.099C128.552 587.582 128.501 588.08 128.646 588.591C128.767 589.09 129.093 589.476 129.623 589.748L129.57 589.852L127.462 588.769ZM126.681 590.289L127.143 589.391L130.904 591.76C130.19 591.393 129.4 591.06 128.535 590.761C127.658 590.485 127.04 590.328 126.681 590.289ZM147.881 577.077L148.568 574.635L151.573 576.179L151.396 576.525C151.396 576.525 151.315 576.484 151.154 576.401C150.993 576.318 150.912 576.276 150.912 576.276C150.336 575.981 149.769 575.922 149.212 576.101C148.654 576.281 148.233 576.618 147.95 577.112L147.881 577.077ZM139.484 593.418L139.553 593.453C139.304 593.995 139.275 594.533 139.466 595.068C139.657 595.603 140.041 596.018 140.616 596.314C140.616 596.314 140.697 596.355 140.858 596.438C141.019 596.521 141.1 596.562 141.1 596.562L140.922 596.908L137.917 595.364L139.484 593.418Z" fill="#FDE4C3"/>
<path d="M122.751 559.167L118.31 584.702L115.772 582.977L120.262 561.654L122.751 559.167ZM122.751 559.167L121.469 561.536L102.279 573.946L100.255 572.571L118.96 561.427C118.96 561.427 119.112 561.342 119.415 561.173C119.697 560.989 120.054 560.762 120.488 560.493C120.885 560.231 121.272 559.961 121.648 559.685C122.024 559.408 122.295 559.17 122.462 558.97L122.751 559.167ZM104.739 572.331C104.067 572.813 103.764 573.328 103.831 573.874C103.883 574.442 104.102 574.857 104.488 575.119L104.713 575.272L104.494 575.593L98.3909 571.445L98.6092 571.123C98.6092 571.123 98.652 571.152 98.7377 571.211C98.8233 571.269 98.8662 571.298 98.8662 571.298C99.3159 571.604 99.8855 571.756 100.575 571.755C101.25 571.775 102.006 571.538 102.844 571.043L104.739 572.331ZM116.367 580.235L118.809 581.895C118.635 582.841 118.682 583.624 118.949 584.244C119.202 584.886 119.543 585.352 119.971 585.643C119.971 585.643 120.014 585.672 120.099 585.731C120.185 585.789 120.228 585.818 120.228 585.818L120.01 586.139L113.424 581.663L113.643 581.342L113.9 581.517C114.264 581.764 114.719 581.808 115.267 581.647C115.778 581.494 116.145 581.023 116.367 580.235Z" fill="#FDE4C3"/>
<path d="M89.0497 563.535L104.448 546.042L106.314 547.684L90.9156 565.177L89.0497 563.535ZM95.8102 540.042L96.6641 539.19L104.507 546.093L103.711 546.997L95.8102 540.042ZM89.8918 549.528L90.6618 548.653L97.1923 554.402L96.4224 555.277L89.8918 549.528ZM81.2364 556.656L82.032 555.753L89.9037 562.682L89.1081 563.586L81.2364 556.656ZM91.3032 541.87L96.5767 539.113L101.008 543.014L99.2213 543.045C98.2495 542.189 97.3523 541.641 96.5297 541.4C95.6705 541.161 94.8424 541.122 94.0454 541.283C93.2312 541.463 92.4144 541.744 91.5947 542.127L91.3032 541.87ZM90.6104 548.712L92.0733 547.05L92.394 547.332L92.0604 547.711C91.7695 548.042 91.6186 548.409 91.6076 548.813C91.5796 549.237 91.7696 549.629 92.1778 549.988L92.1265 550.046L90.6104 548.712ZM88.4803 551.132L89.9432 549.47L91.4592 550.804L91.4079 550.863C90.9997 550.503 90.5958 550.355 90.1961 550.417C89.7793 550.498 89.4255 550.704 89.1346 551.035L88.801 551.414L88.4803 551.132ZM81.955 555.84L83.7259 553.829L84.0465 554.111L83.6616 554.548C83.3023 554.956 83.1304 555.426 83.1458 555.957C83.1419 556.471 83.3634 556.925 83.8104 557.318L83.7334 557.406L81.955 555.84ZM80.8258 557.123L81.4931 556.365L84.56 559.582C83.9575 559.052 83.2733 558.536 82.5075 558.034C81.7246 557.552 81.164 557.248 80.8258 557.123ZM104.613 549.499L105.877 547.3L108.413 549.532L108.157 549.824C108.157 549.824 108.089 549.764 107.953 549.644C107.817 549.524 107.749 549.465 107.749 549.465C107.263 549.037 106.727 548.842 106.143 548.879C105.558 548.916 105.068 549.14 104.672 549.55L104.613 549.499ZM92.4742 563.289L92.5325 563.34C92.1584 563.804 91.9985 564.319 92.0528 564.884C92.1072 565.45 92.3773 565.946 92.8632 566.374C92.8632 566.374 92.9312 566.434 93.0673 566.554C93.2033 566.673 93.2714 566.733 93.2714 566.733L93.0147 567.025L90.4783 564.792L92.4742 563.289Z" fill="#FDE4C3"/>
<path d="M70.7681 546.069L88.0726 530.459L89.7377 532.305L72.4331 547.915L70.7681 546.069ZM80.1803 523.508L81.1264 522.759L88.1247 530.517L87.2306 531.323L80.1803 523.508ZM75.4932 524.806L81.0484 522.672L85.0028 527.056L83.2242 526.882C82.357 525.921 81.5286 525.273 80.7391 524.939C79.9131 524.603 79.0949 524.469 78.2847 524.537C77.4553 524.623 76.6115 524.809 75.7534 525.095L75.4932 524.806ZM87.8398 533.912L89.3474 531.872L91.6108 534.382L91.3224 534.642C91.3224 534.642 91.2617 534.575 91.1403 534.44C91.0189 534.305 90.9582 534.238 90.9582 534.238C90.5246 533.757 90.0152 533.502 89.4301 533.472C88.8449 533.442 88.3322 533.608 87.8918 533.97L87.8398 533.912ZM72.6919 544.49L70.8461 546.155L68.9209 544.021L69.2093 543.761C69.2093 543.761 69.2614 543.819 69.3654 543.934C69.4695 544.049 69.5215 544.107 69.5215 544.107C69.9378 544.568 70.4558 544.833 71.0757 544.902C71.6589 544.969 72.1717 544.803 72.6139 544.404L72.6919 544.49ZM74.2269 546.192L74.2789 546.25C73.854 546.668 73.6448 547.17 73.6512 547.757C73.6384 548.362 73.8488 548.904 74.2824 549.385C74.2824 549.385 74.3345 549.443 74.4385 549.558C74.5426 549.673 74.5946 549.731 74.5946 549.731L74.3062 549.991L72.381 547.857L74.2269 546.192Z" fill="#FDE4C3"/>
<path d="M49.5561 520.245C48.5475 518.739 47.8512 517.164 47.4672 515.521C47.0473 513.87 46.9578 512.247 47.1987 510.652C47.4251 509.036 47.975 507.53 48.8483 506.135C49.7001 504.754 50.879 503.56 52.3851 502.551C53.8912 501.543 55.4555 500.9 57.078 500.624C58.679 500.362 60.2699 500.434 61.8507 500.84C63.4171 501.225 64.8944 501.918 66.2825 502.921C67.6347 503.917 68.8151 505.167 69.8237 506.673C70.8322 508.179 71.5392 509.747 71.9448 511.377C72.3288 513.02 72.4076 514.651 72.1811 516.267C71.9402 517.862 71.3938 519.349 70.5421 520.73C69.6688 522.125 68.4791 523.327 66.973 524.336C65.4669 525.344 63.9134 525.979 62.3124 526.241C60.6899 526.517 59.0954 526.463 57.529 526.079C55.9482 525.672 54.4817 524.972 53.1295 523.976C51.7557 522.995 50.5646 521.752 49.5561 520.245ZM68.8555 507.322C67.7893 505.73 66.4367 504.547 64.7977 503.775C63.1586 503.003 61.3985 502.701 59.5172 502.87C57.636 503.039 55.7917 503.729 53.9844 504.939C52.1556 506.164 50.8156 507.607 49.9644 509.267C49.0916 510.943 48.7002 512.685 48.7901 514.495C48.88 516.304 49.4581 518.005 50.5243 519.597C51.576 521.168 52.9214 522.339 54.5605 523.111C56.1995 523.884 57.9596 524.185 59.8409 524.016C61.7006 523.862 63.5449 523.172 65.3737 521.947C67.181 520.737 68.521 519.294 69.3938 517.619C70.2665 515.944 70.6579 514.202 70.568 512.392C70.4781 510.582 69.9072 508.892 68.8555 507.322Z" fill="#FDE4C3"/>
<path d="M36.2188 496.336L34.3928 492.431C33.6251 490.789 33.2078 489.254 33.1411 487.828C33.0509 486.412 33.3097 485.162 33.9174 484.077C34.5017 483.004 35.4154 482.177 36.6586 481.595C37.9956 480.97 39.2876 480.738 40.5345 480.898C41.7469 481.046 42.8415 481.491 43.8182 482.235C44.7714 482.99 45.5277 483.966 46.087 485.162C46.6229 486.369 46.8773 487.708 46.8502 489.179L46.4983 489.343C46.4983 489.343 46.4458 489.139 46.3407 488.731C46.2246 488.299 46.024 487.778 45.7388 487.169C45.4302 486.57 45.0231 485.974 44.5174 485.381C43.9882 484.8 43.3168 484.342 42.5031 484.008C41.6784 483.65 40.6795 483.531 39.5064 483.651C39.2045 483.678 38.8721 483.762 38.5093 483.903C38.1355 484.02 37.7962 484.151 37.4912 484.293C36.0604 484.962 35.1648 485.981 34.8044 487.35C34.444 488.719 34.6697 490.272 35.4812 492.007L37.0934 495.456C37.0934 495.456 37.0278 495.529 36.8965 495.676C36.7308 495.811 36.5823 495.952 36.451 496.099C36.2962 496.257 36.2188 496.336 36.2188 496.336ZM36.005 495.879L57.116 486.008L58.1689 488.26L37.0578 498.131L36.005 495.879ZM55.8841 489.242L57.9221 487.732L59.3534 490.793L59.0015 490.958C59.0015 490.958 58.9631 490.876 58.8864 490.711C58.8096 490.547 58.7712 490.465 58.7712 490.465C58.508 489.902 58.101 489.521 57.5502 489.321C56.9885 489.098 56.4441 489.095 55.9171 489.313L55.8841 489.242ZM39.2416 497.024L39.2745 497.094C38.746 497.37 38.399 497.789 38.2336 498.353C38.0572 498.892 38.1006 499.444 38.3639 500.007C38.3639 500.007 38.4022 500.089 38.479 500.253C38.5558 500.417 38.5942 500.499 38.5942 500.499L38.2423 500.664L36.8111 497.603L39.2416 497.024ZM54.9135 487.167L54.8806 487.096C55.3857 486.831 55.7382 486.424 55.938 485.873C56.1269 485.299 56.0897 484.73 55.8265 484.167C55.8155 484.144 55.7771 484.062 55.7113 483.921C55.6345 483.757 55.5962 483.674 55.5962 483.674L55.948 483.51L57.3792 486.571L54.9135 487.167Z" fill="#FDE4C3"/>
<path d="M25.9708 471.555L48.1884 464.52L48.9388 466.89L26.7212 473.924L25.9708 471.555ZM43.8867 454.923L45.0581 454.633L48.2119 464.594L47.064 464.958L43.8867 454.923ZM33.9214 459.993L35.0323 459.641L37.6585 467.936L36.5476 468.287L33.9214 459.993ZM22.8288 461.631L23.9767 461.267L27.1422 471.265L25.9943 471.629L22.8288 461.631ZM39.0829 454.162L45.0229 454.522L46.805 460.151L45.2585 459.255C44.8677 458.021 44.3822 457.088 43.8021 456.457C43.1895 455.809 42.5004 455.348 41.7347 455.074C40.9444 454.809 40.0995 454.628 39.2001 454.532L39.0829 454.162ZM34.9583 459.664L37.0689 458.996L37.1979 459.404L36.7165 459.556C36.2968 459.689 35.978 459.926 35.7599 460.266C35.5171 460.615 35.4778 461.048 35.642 461.567L35.5679 461.59L34.9583 459.664ZM31.8848 460.638L33.9955 459.969L34.6051 461.895L34.5311 461.918C34.367 461.4 34.0977 461.064 33.7233 460.911C33.3242 460.766 32.9148 460.76 32.4952 460.892L32.0138 461.045L31.8848 460.638ZM23.8656 461.302L26.4206 460.494L26.5496 460.901L25.9941 461.077C25.4757 461.241 25.0861 461.554 24.8252 462.017C24.5565 462.455 24.5121 462.958 24.6918 463.526L24.5808 463.561L23.8656 461.302ZM22.2363 461.818L23.1991 461.514L24.1653 465.852C23.923 465.087 23.6034 464.292 23.2064 463.467C22.7847 462.65 22.4613 462.1 22.2363 461.818ZM46.5454 467.566L48.7629 466.335L49.7829 469.556L49.4126 469.673C49.4126 469.673 49.3853 469.587 49.3305 469.414C49.2758 469.241 49.2485 469.155 49.2485 469.155C49.0531 468.538 48.6954 468.094 48.1753 467.824C47.6553 467.554 47.1198 467.493 46.5689 467.64L46.5454 467.566ZM29.0306 473.112L29.054 473.186C28.494 473.39 28.0914 473.749 27.8462 474.261C27.601 474.773 27.5761 475.338 27.7715 475.955C27.7715 475.955 27.7988 476.041 27.8535 476.214C27.9082 476.387 27.9356 476.473 27.9356 476.473L27.5653 476.591L26.5453 473.369L29.0306 473.112Z" fill="#FDE4C3"/>
<path d="M19.371 447.042L18.5504 442.099C18.3511 440.899 18.3135 439.803 18.4375 438.811C18.5574 437.793 18.8304 436.908 19.2566 436.155C19.6785 435.376 20.2429 434.744 20.9499 434.26C21.6568 433.775 22.4957 433.452 23.4664 433.291C24.5392 433.112 25.5779 433.202 26.5823 433.561C27.5867 433.919 28.459 434.509 29.1992 435.331C29.9351 436.128 30.4624 437.09 30.781 438.218C30.8877 437.754 31.2009 437.191 31.7207 436.527C32.2362 435.837 32.7538 435.24 33.2735 434.733C33.2735 434.733 33.4758 434.529 33.8805 434.121C34.2596 433.717 34.7388 433.204 35.3182 432.583C35.8677 431.94 36.3938 431.315 36.8965 430.707C37.395 430.073 37.8253 429.502 38.1875 428.996C38.5454 428.464 38.8097 427.922 38.9803 427.368C39.1211 426.794 39.1343 426.162 39.0198 425.472L39.403 425.408L39.6002 426.596C39.8334 428.001 39.8476 429.193 39.6426 430.172C39.4334 431.125 39.12 431.925 38.7024 432.572C38.2593 433.223 37.829 433.793 37.4115 434.283C37.3007 434.406 37.0217 434.702 36.5745 435.17C36.0974 435.616 35.5884 436.108 35.0474 436.644C34.5064 437.18 34.023 437.667 33.597 438.105C33.1455 438.548 32.875 438.816 32.7855 438.909C32.2062 439.53 31.7162 440.215 31.3156 440.964C30.8894 441.718 30.7378 442.465 30.8608 443.205L30.4776 443.269C30.4776 443.269 30.4565 443.063 30.4142 442.65C30.3463 442.241 30.2466 441.719 30.1151 441.085C29.9708 440.374 29.8009 439.667 29.6056 438.965C29.3846 438.266 28.9934 437.649 28.4318 437.112C27.866 436.55 27.017 436.179 25.8847 435.999C25.5868 435.944 25.242 435.922 24.8503 435.935C24.4587 435.947 24.0606 436 23.6562 436.094C22.9452 436.238 22.3299 436.485 21.8103 436.833C21.2865 437.157 20.8584 437.582 20.526 438.11C20.1894 438.612 19.957 439.188 19.8289 439.84C19.7008 440.491 19.6876 441.202 19.7893 441.972C19.9375 443.181 20.0986 444.231 20.2726 445.121C20.4465 446.011 20.5208 446.458 20.4952 446.462C20.4697 446.466 20.3738 446.521 20.2078 446.628C20.0119 446.713 19.8309 446.808 19.6648 446.915C19.4689 447 19.371 447.042 19.371 447.042ZM19.2947 446.582L42.2846 442.766L42.6917 445.218L19.7018 449.035L19.2947 446.582ZM40.2204 445.51L42.5963 444.643L43.137 447.9L42.7539 447.964C42.7539 447.964 42.739 447.874 42.7093 447.695C42.6797 447.517 42.6648 447.427 42.6648 447.427C42.563 446.814 42.2739 446.337 41.7973 445.996C41.3207 445.655 40.7993 445.519 40.2331 445.587L40.2204 445.51ZM22.0967 448.519L22.1094 448.596C21.5261 448.719 21.0768 449.016 20.7615 449.489C20.4462 449.961 20.3394 450.504 20.4412 451.117C20.4412 451.117 20.456 451.206 20.4857 451.385C20.5154 451.564 20.5302 451.653 20.5302 451.653L20.1471 451.717L19.6064 448.46L22.0967 448.519ZM39.8514 443.288L39.8324 443.173C40.3901 443.054 40.8394 442.756 41.1803 442.28C41.5211 441.803 41.6406 441.258 41.5389 440.645C41.5389 440.645 41.5261 440.569 41.5007 440.415C41.471 440.236 41.4562 440.147 41.4562 440.147L41.833 440.045L42.38 443.34L39.8514 443.288Z" fill="#FDE4C3"/>
<path d="M11.8494 409.444V407.696H46.0295V409.444H11.8494Z" fill="#FDE4C3"/>
<path d="M11.8494 384.985H39.0381V387.509H11.8494V384.985ZM36.2027 387.393H39.0381V390.5H38.6497C38.6497 390.5 38.6497 390.422 38.6497 390.267C38.6497 390.086 38.6497 389.995 38.6497 389.995C38.6497 389.322 38.4166 388.752 37.9505 388.286C37.4586 387.794 36.8759 387.535 36.2027 387.509V387.393ZM14.6848 387.393V387.509C14.0115 387.535 13.4418 387.794 12.9758 388.286C12.4838 388.752 12.2378 389.322 12.2378 389.995C12.2378 389.995 12.2378 390.086 12.2378 390.267C12.2378 390.422 12.2378 390.5 12.2378 390.5H11.8494V387.393H14.6848ZM36.2027 385.101V384.985C36.8759 384.959 37.4586 384.713 37.9505 384.247C38.4166 383.755 38.6497 383.172 38.6497 382.499C38.6497 382.499 38.6497 382.421 38.6497 382.266C38.6497 382.11 38.6497 382.02 38.6497 381.994H39.0381V385.101H36.2027ZM14.6848 385.101H11.8494V381.994H12.2378C12.2378 382.02 12.2378 382.11 12.2378 382.266C12.2378 382.421 12.2378 382.499 12.2378 382.499C12.2378 383.172 12.4838 383.755 12.9758 384.247C13.4418 384.713 14.0115 384.959 14.6848 384.985V385.101Z" fill="#FDE4C3"/>
<path d="M15.1508 374.659L35.4259 353.141L39.5819 352.753L19.1903 374.271L15.1508 374.659ZM36.6299 374.581H39.0381V377.495H38.6497C38.6497 377.495 38.6497 377.391 38.6497 377.184C38.6497 376.951 38.6497 376.834 38.6497 376.834C38.6497 376.239 38.4555 375.734 38.0671 375.319C37.6786 374.905 37.1996 374.698 36.6299 374.698V374.581ZM36.6299 372.95C37.1996 372.95 37.6786 372.743 38.0671 372.329C38.4555 371.889 38.6497 371.384 38.6497 370.814C38.6497 370.814 38.6497 370.71 38.6497 370.503C38.6497 370.27 38.6497 370.154 38.6497 370.154H39.0381V373.067H36.6299V372.95ZM15.1508 374.659L17.3259 372.989L39.0381 372.95V374.698H20.006C18.6854 374.698 17.546 374.763 16.588 374.892C15.6299 374.996 15.1508 375.048 15.1508 375.048V374.659ZM15.7335 352.753H34.6102C35.4388 352.753 36.2415 352.727 37.0184 352.675C37.7693 352.623 38.3907 352.572 38.8827 352.52C39.3488 352.442 39.5819 352.403 39.5819 352.403V352.753L37.5233 354.462H15.7335V352.753ZM18.1416 352.869H15.7335V349.956H16.1219C16.1219 349.956 16.1219 350.073 16.1219 350.306C16.1219 350.513 16.1219 350.617 16.1219 350.617C16.1219 351.186 16.3161 351.691 16.7045 352.131C17.0929 352.546 17.5719 352.753 18.1416 352.753V352.869ZM18.1416 354.462C17.5719 354.488 17.0929 354.708 16.7045 355.122C16.3161 355.536 16.1219 356.041 16.1219 356.637C16.1219 356.637 16.1219 356.753 16.1219 356.987C16.1219 357.194 16.1219 357.297 16.1219 357.297H15.7335V354.384H18.1416V354.462Z" fill="#FDE4C3"/>
<path d="M15.7335 339.244H39.0381V341.691H15.7335V339.244ZM26.8032 330.505H27.9684V339.322H26.8032V330.505ZM15.7335 328.68H16.9375V339.322H15.7335L15.7335 328.68ZM27.8907 330.505H30.1046V330.932H29.5997C29.1595 330.932 28.7841 331.062 28.4733 331.321C28.1367 331.554 27.9684 331.955 27.9684 332.525H27.8907V330.505ZM24.6669 330.505H26.8808V332.525H26.8032C26.8032 331.955 26.6478 331.554 26.3371 331.321C26.0004 331.062 25.612 330.932 25.1718 330.932H24.6669V330.505ZM16.821 328.68H19.501V329.107H18.9184C18.3747 329.107 17.9086 329.288 17.5202 329.651C17.1317 329.987 16.9375 330.453 16.9375 331.049H16.821V328.68ZM15.112 328.68H16.1219L15.7335 333.146C15.7335 332.603 15.7076 332.033 15.6558 331.437C15.5781 330.842 15.4875 330.298 15.3839 329.806C15.2803 329.288 15.1897 328.913 15.112 328.68ZM36.5523 341.614L39.0381 341.109V344.527H38.6497C38.6497 344.527 38.6497 344.436 38.6497 344.255C38.6497 344.074 38.6497 343.983 38.6497 343.983C38.6497 343.336 38.4425 342.805 38.0282 342.391C37.6139 341.95 37.1219 341.717 36.5523 341.691V341.614ZM18.1805 341.614V341.691C17.5849 341.717 17.0929 341.95 16.7045 342.391C16.3161 342.805 16.1219 343.336 16.1219 343.983C16.1219 343.983 16.1219 344.074 16.1219 344.255C16.1219 344.436 16.1219 344.527 16.1219 344.527H15.7335V341.109L18.1805 341.614ZM36.5523 339.322V339.244C37.1219 339.219 37.6139 338.998 38.0282 338.584C38.4425 338.144 38.6497 337.6 38.6497 336.953C38.6497 336.953 38.6497 336.862 38.6497 336.681C38.6497 336.5 38.6497 336.409 38.6497 336.409H39.0381V339.827L36.5523 339.322Z" fill="#FDE4C3"/>
<path d="M15.1897 310.645C15.1897 308.833 15.4875 307.137 16.083 305.557C16.6527 303.952 17.4813 302.553 18.5689 301.362C19.6564 300.145 20.9511 299.2 22.453 298.527C23.9289 297.854 25.5732 297.517 27.3858 297.517C29.1984 297.517 30.8556 297.854 32.3574 298.527C33.8334 299.2 35.1151 300.145 36.2027 301.362C37.2902 302.553 38.1318 303.952 38.7274 305.557C39.297 307.137 39.5819 308.833 39.5819 310.645C39.5819 312.458 39.297 314.154 38.7274 315.733C38.1318 317.313 37.2902 318.711 36.2027 319.928C35.1151 321.119 33.8334 322.052 32.3574 322.725C30.8556 323.398 29.1984 323.735 27.3858 323.735C25.5732 323.735 23.9289 323.398 22.453 322.725C20.9511 322.052 19.6564 321.119 18.5689 319.928C17.4813 318.711 16.6527 317.313 16.083 315.733C15.4875 314.154 15.1897 312.458 15.1897 310.645ZM38.4166 310.645C38.4166 308.729 37.9505 306.994 37.0184 305.441C36.0862 303.887 34.7915 302.657 33.1342 301.751C31.477 300.844 29.5609 300.391 27.3858 300.391C25.1848 300.391 23.2686 300.844 21.6373 301.751C19.9801 302.657 18.6854 303.887 17.7532 305.441C16.821 306.994 16.3549 308.729 16.3549 310.645C16.3549 312.536 16.821 314.257 17.7532 315.811C18.6854 317.365 19.9801 318.595 21.6373 319.501C23.2686 320.407 25.1848 320.86 27.3858 320.86C29.5609 320.86 31.477 320.407 33.1342 319.501C34.7915 318.595 36.0862 317.365 37.0184 315.811C37.9505 314.257 38.4166 312.536 38.4166 310.645Z" fill="#FDE4C3"/>
<path d="M15.7335 287.424V282.413C15.7335 281.196 15.8759 280.109 16.1607 279.151C16.4456 278.167 16.8599 277.338 17.4036 276.665C17.9474 275.966 18.6077 275.435 19.3845 275.073C20.1613 274.71 21.0417 274.529 22.0257 274.529C23.1133 274.529 24.1231 274.788 25.0553 275.306C25.9875 275.823 26.7514 276.548 27.3469 277.481C27.9425 278.387 28.305 279.423 28.4345 280.588C28.6157 280.148 29.0171 279.643 29.6386 279.073C30.26 278.478 30.8685 277.973 31.4641 277.558C31.4641 277.558 31.6971 277.39 32.1632 277.053C32.6034 276.717 33.1601 276.29 33.8334 275.772C34.4807 275.228 35.1022 274.697 35.6978 274.179C36.2933 273.635 36.8112 273.143 37.2514 272.703C37.6916 272.237 38.0412 271.745 38.3001 271.227C38.5332 270.683 38.6497 270.062 38.6497 269.363H39.0381V270.567C39.0381 271.991 38.8568 273.169 38.4943 274.101C38.1318 275.008 37.6916 275.746 37.1737 276.315C36.6299 276.885 36.1121 277.377 35.6201 277.791C35.4906 277.895 35.1669 278.141 34.649 278.529C34.1053 278.892 33.5227 279.293 32.9012 279.733C32.2797 280.174 31.723 280.575 31.231 280.938C30.7132 281.3 30.4024 281.52 30.2989 281.598C29.6256 282.116 29.03 282.711 28.5122 283.384C27.9684 284.058 27.6965 284.77 27.6965 285.521H27.3081C27.3081 285.521 27.321 285.314 27.3469 284.899C27.3469 284.485 27.334 283.954 27.3081 283.307C27.2822 282.582 27.2304 281.857 27.1527 281.132C27.0492 280.407 26.7643 279.733 26.2982 279.112C25.8321 278.465 25.0553 277.96 23.9678 277.597C23.6829 277.494 23.3463 277.416 22.9579 277.364C22.5695 277.312 22.1681 277.299 21.7538 277.325C21.0288 277.351 20.3814 277.494 19.8118 277.753C19.2421 277.986 18.7501 278.335 18.3358 278.801C17.9215 279.241 17.5978 279.772 17.3648 280.394C17.1317 281.015 17.0023 281.714 16.9764 282.491C16.9246 283.708 16.9116 284.77 16.9375 285.676C16.9634 286.582 16.9634 287.036 16.9375 287.036C16.9116 287.036 16.8081 287.074 16.6268 287.152C16.4197 287.204 16.2255 287.269 16.0442 287.346C15.837 287.398 15.7335 287.424 15.7335 287.424ZM15.7335 286.958H39.0381V289.444H15.7335V286.958ZM36.5523 289.327L39.0381 288.861V292.163H38.6497C38.6497 292.163 38.6497 292.072 38.6497 291.891C38.6497 291.709 38.6497 291.619 38.6497 291.619C38.6497 290.997 38.4425 290.479 38.0282 290.065C37.6139 289.651 37.1219 289.431 36.5523 289.405V289.327ZM18.1805 289.327V289.405C17.5849 289.431 17.0929 289.651 16.7045 290.065C16.3161 290.479 16.1219 290.997 16.1219 291.619C16.1219 291.619 16.1219 291.709 16.1219 291.891C16.1219 292.072 16.1219 292.163 16.1219 292.163H15.7335V288.861L18.1805 289.327ZM36.5523 287.074V286.958C37.1219 286.932 37.6139 286.712 38.0282 286.298C38.4425 285.883 38.6497 285.365 38.6497 284.744C38.6497 284.744 38.6497 284.666 38.6497 284.511C38.6497 284.33 38.6497 284.239 38.6497 284.239L39.0381 284.2V287.54L36.5523 287.074Z" fill="#FDE4C3"/>
<path d="M15.1897 241.884L17.7144 241.534L35.6201 250.623C35.6201 250.623 35.8402 250.726 36.2804 250.934C36.7206 251.115 37.2514 251.309 37.8729 251.516C38.4684 251.723 39.0381 251.879 39.5819 251.982V252.371L37.1349 252.914L15.1897 241.884ZM36.4357 264.644H39.0381V268.684H38.6497C38.6497 268.684 38.6497 268.593 38.6497 268.412C38.6497 268.205 38.6497 268.101 38.6497 268.101C38.6497 267.428 38.4555 266.845 38.0671 266.353C37.6786 265.836 37.1349 265.538 36.4357 265.46V264.644ZM37.0184 263.479C37.4068 263.505 37.7822 263.414 38.1447 263.207C38.4814 263 38.6626 262.612 38.6885 262.042V261.498H39.0381V263.712H37.0184V263.479ZM15.1897 262.43V262.042L17.4813 261.265L39.0381 263.673V265.81L15.1897 262.43ZM15.1897 262.042L35.5036 251.477L39.5819 252.371L19.4622 262.78L15.1897 262.042ZM15.1897 241.534L39.0381 238.038V240.99L19.501 243.515L15.1897 241.884V241.534ZM36.4357 239.204V238.427C37.1349 238.323 37.6786 238.012 38.0671 237.495C38.4555 236.977 38.6497 236.394 38.6497 235.747C38.6497 235.747 38.6497 235.656 38.6497 235.475C38.6497 235.268 38.6497 235.164 38.6497 235.164H39.0381V239.204H36.4357ZM37.0184 241.262V240.99H39.0381V243.243H38.6885V242.66C38.6626 242.065 38.4684 241.676 38.1059 241.495C37.7434 241.288 37.3809 241.21 37.0184 241.262Z" fill="#FDE4C3"/>
<path d="M15.2964 218.753L39.2138 208.767L39.1241 211.834L18.7325 219.514L15.2964 218.753ZM36.0814 226.86C36.8496 227.168 37.459 227.147 37.9096 226.797C38.3343 226.447 38.5535 226.039 38.5671 225.573L38.5762 225.262L38.9644 225.274L38.7476 232.689L38.3594 232.678C38.3594 232.678 38.3609 232.626 38.3639 232.523C38.367 232.419 38.3685 232.367 38.3685 232.367C38.3844 231.824 38.2194 231.262 37.8737 230.682C37.5021 230.101 36.8824 229.591 36.0145 229.151L36.0814 226.86ZM15.2964 218.753L17.9833 218.56L38.7662 228.066L38.6947 230.512L19.2409 220.734C19.2409 220.734 19.0875 220.664 18.7806 220.526C18.4746 220.362 18.1042 220.182 17.6695 219.988C17.2097 219.768 16.762 219.573 16.3265 219.405C15.8911 219.237 15.5443 219.136 15.2862 219.103L15.2964 218.753ZM30.2225 214.604L31.3872 214.638L31.0864 224.927L29.9217 224.893L30.2225 214.604ZM36.4923 212.806L36.5785 209.855C37.4699 209.493 38.118 209.032 38.5229 208.474C38.9019 207.916 39.099 207.377 39.1141 206.86C39.1141 206.86 39.1156 206.808 39.1186 206.704C39.1217 206.601 39.1232 206.549 39.1232 206.549L39.5114 206.56L39.2788 214.519L38.8905 214.508L38.8996 214.197C38.9125 213.757 38.7171 213.35 38.3136 212.976C37.8842 212.6 37.2771 212.544 36.4923 212.806Z" fill="#FDE4C3"/>
<path d="M18.8556 191.087L41.6985 195.073L41.2645 197.56L18.4216 193.574L18.8556 191.087ZM20.3184 181.801L21.4663 182.001L17.8007 203.007L16.6528 202.807L20.3184 181.801ZM21.3897 181.988L24.0299 182.448L23.9564 182.869L23.3442 182.762C22.8085 182.669 22.331 182.769 21.9116 183.064C21.4711 183.329 21.1869 183.753 21.059 184.335L20.9825 184.322L21.3897 181.988ZM19.7062 181.694L20.701 181.867L19.5706 186.086C19.6596 185.576 19.7276 185.036 19.7745 184.466C19.8003 183.866 19.8045 183.314 19.7871 182.812C19.7696 182.309 19.7426 181.937 19.7062 181.694ZM38.8291 197.056L41.2779 197.484L40.7905 200.277L40.4079 200.21C40.4123 200.184 40.4257 200.108 40.4479 199.98C40.4746 199.827 40.488 199.751 40.488 199.751C40.5948 199.139 40.482 198.58 40.1495 198.075C39.8171 197.57 39.3725 197.256 38.8157 197.133L38.8291 197.056ZM39.2297 194.76L39.2497 194.646C39.8154 194.718 40.3401 194.573 40.8239 194.211C41.3077 193.848 41.603 193.361 41.7099 192.749C41.7099 192.749 41.721 192.685 41.7432 192.557C41.7699 192.404 41.7833 192.328 41.7833 192.328L42.1659 192.395L41.6785 195.188L39.2297 194.76ZM18.1314 200.66L18.2079 200.673C18.1311 201.264 18.2528 201.772 18.5731 202.196C18.8724 202.59 19.2898 202.833 19.8255 202.927L20.4377 203.034L20.3643 203.455L17.7241 202.994L18.1314 200.66ZM16.0406 202.7C16.1572 202.484 16.3065 202.155 16.4887 201.714C16.6753 201.247 16.858 200.727 17.0369 200.153C17.1903 199.576 17.3116 199.032 17.4006 198.521L17.0354 202.874L16.0406 202.7Z" fill="#FDE4C3"/>
<path d="M23.8091 169.619L46.189 176.119L45.5065 178.468L23.1266 171.969L23.8091 169.619ZM43.1518 177.663L45.539 178.357L44.6182 181.527L44.2452 181.419C44.2452 181.419 44.2704 181.332 44.321 181.158C44.3716 180.984 44.3968 180.897 44.3968 180.897C44.599 180.2 44.5698 179.558 44.3092 178.97C44.0558 178.357 43.6591 177.959 43.1193 177.775L43.1518 177.663ZM43.7693 175.537L43.8018 175.425C44.3561 175.559 44.9007 175.448 45.4358 175.091C45.9781 174.709 46.3504 174.17 46.5526 173.474C46.5526 173.474 46.5743 173.399 46.6176 173.25C46.6682 173.076 46.6934 172.989 46.6934 172.989L47.0773 173.06L46.1565 176.23L43.7693 175.537ZM26.1638 170.424L23.7766 169.731L24.6974 166.56L25.0596 166.706C25.0596 166.706 25.0343 166.793 24.9838 166.967C24.9404 167.116 24.9188 167.191 24.9188 167.191C24.7166 167.887 24.7422 168.541 24.9956 169.154C25.2314 169.735 25.6316 170.121 26.1963 170.312L26.1638 170.424ZM25.5463 172.55L25.5138 172.662C24.9347 172.521 24.3864 172.645 23.8689 173.034C23.3339 173.39 22.9652 173.917 22.763 174.613C22.7558 174.638 22.7269 174.738 22.6763 174.912C22.633 175.061 22.6113 175.135 22.6113 175.135L22.2383 175.027L23.1591 171.857L25.5463 172.55Z" fill="#FDE4C3"/>
<path d="M31.5403 146.811C32.2698 145.152 33.2249 143.719 34.4058 142.512C35.5734 141.272 36.8946 140.325 38.3696 139.673C39.8549 138.996 41.4205 138.652 43.0663 138.64C44.6884 138.618 46.3291 138.971 47.9885 139.701C49.6478 140.43 51.0294 141.405 52.1334 142.626C53.2136 143.836 54.0066 145.217 54.5125 146.769C55.0287 148.297 55.2364 149.916 55.1356 151.625C55.0214 153.3 54.5996 154.968 53.8702 156.627C53.1407 158.286 52.1974 159.724 51.0403 160.941C49.8594 162.147 48.5263 163.089 47.041 163.765C45.566 164.418 44.0175 164.756 42.3954 164.778C40.7496 164.79 39.097 164.431 37.4377 163.702C35.7784 162.972 34.4086 162.002 33.3283 160.792C32.2244 159.571 31.4143 158.197 30.8981 156.669C30.3922 155.117 30.1964 153.504 30.3105 151.828C30.401 150.143 30.8109 148.47 31.5403 146.811ZM52.8035 156.158C53.5746 154.404 53.8461 152.628 53.6179 150.831C53.3898 149.033 52.6995 147.386 51.5472 145.89C50.3948 144.393 48.823 143.207 46.8318 142.332C44.8169 141.446 42.8804 141.09 41.0223 141.263C39.1404 141.426 37.4602 142.031 35.9816 143.078C34.503 144.125 33.3782 145.526 32.6071 147.28C31.8464 149.01 31.5801 150.774 31.8082 152.572C32.0364 154.369 32.7266 156.016 33.879 157.513C35.0077 158.999 36.5795 160.185 38.5944 161.07C40.5856 161.946 42.5221 162.302 44.4039 162.139C46.2857 161.977 47.9659 161.372 49.4445 160.324C50.9231 159.277 52.0428 157.889 52.8035 156.158Z" fill="#FDE4C3"/>
<path d="M43.0227 123.597L71.8721 117.131L75.5323 119.137L46.5864 125.538L43.0227 123.597ZM60.8585 135.565L62.8533 136.914L61.2213 139.327L60.8996 139.11C60.8996 139.11 60.9576 139.024 61.0737 138.852C61.2042 138.659 61.2695 138.563 61.2695 138.563C61.6031 138.069 61.7251 137.542 61.6355 136.982C61.5459 136.421 61.2651 135.981 60.7932 135.662L60.8585 135.565ZM61.7724 134.214C62.2443 134.533 62.7571 134.63 63.3109 134.504C63.8793 134.357 64.323 134.048 64.6422 133.576C64.6422 133.576 64.7002 133.49 64.8162 133.318C64.9468 133.125 65.0121 133.029 65.0121 133.029L65.3338 133.246L63.7019 135.66L61.7071 134.31L61.7724 134.214ZM43.0227 123.597L45.7601 123.432L63.7672 135.563L62.788 137.011L47.0227 126.349C45.9288 125.609 44.9488 125.024 44.0826 124.595C43.231 124.144 42.8051 123.919 42.8051 123.919L43.0227 123.597ZM55.7775 105.777L71.414 116.352C72.1004 116.816 72.7799 117.244 73.4524 117.637C74.1034 118.014 74.6472 118.32 75.0837 118.552C75.5134 118.749 75.7282 118.848 75.7282 118.848L75.5323 119.137L72.8697 119.4L54.8201 107.193L55.7775 105.777ZM57.707 107.223L55.7122 105.874L57.3441 103.461L57.6659 103.678C57.6659 103.678 57.6006 103.775 57.47 103.968C57.354 104.139 57.296 104.225 57.296 104.225C56.9768 104.697 56.8548 105.224 56.93 105.806C57.0196 106.367 57.3004 106.807 57.7723 107.126L57.707 107.223ZM56.8149 108.542C56.3285 108.244 55.8084 108.158 55.2545 108.284C54.7007 108.409 54.2569 108.719 53.9233 109.212C53.9233 109.212 53.858 109.309 53.7275 109.502C53.6114 109.673 53.5534 109.759 53.5534 109.759L53.2317 109.541L54.8636 107.128L56.8584 108.477L56.8149 108.542Z" fill="#FDE4C3"/>
<path d="M76.7734 76.772L95.5531 96.2713L93.7347 98.0227L74.9549 78.5233L76.7734 76.772ZM83.8554 69.7355L84.6638 70.5748L68.4656 86.1752L67.6573 85.3359L83.8554 69.7355ZM84.5829 70.4909L86.7654 72.757L86.4587 72.9984L86.0006 72.5228C85.5516 72.0566 85.0065 71.8266 84.3654 71.8328C83.743 71.8211 83.199 72.0215 82.7334 72.4339L82.6526 72.35L84.5829 70.4909ZM83.3705 69.232L84.1518 70.0433L80.4424 73.0227C80.8527 72.6275 81.2547 72.1864 81.6484 71.6993C82.0608 71.1943 82.4269 70.7159 82.7467 70.2641C83.0665 69.8123 83.2744 69.4682 83.3705 69.232ZM91.8517 95.8996L93.8186 97.9418L91.5805 100.097L91.3111 99.8176C91.3111 99.8176 91.367 99.7637 91.4789 99.6559C91.6095 99.5302 91.6748 99.4673 91.6748 99.4673C92.1597 99.0003 92.4083 98.4372 92.4207 97.7782C92.4338 97.0826 92.2161 96.4833 91.7678 95.9804L91.8517 95.8996ZM93.5023 94.3099L93.5862 94.2291C94.0719 94.696 94.6532 94.945 95.3302 94.9761C96.0079 94.9705 96.5892 94.7342 97.0741 94.2672C97.0741 94.2672 97.1301 94.2133 97.242 94.1055C97.3726 93.9798 97.4378 93.9169 97.4378 93.9169L97.7073 94.1967L95.4692 96.3522L93.5023 94.3099ZM70.3151 84.2322L70.3959 84.3161C69.9476 84.7838 69.7176 85.3289 69.7059 85.9513C69.6942 86.5737 69.9129 87.1181 70.362 87.5843L70.82 88.0599L70.5672 88.3574L68.3847 86.0913L70.3151 84.2322ZM67.1723 84.8324C67.4306 84.7273 67.7822 84.5325 68.2271 84.2479C68.6906 83.9453 69.1825 83.5974 69.7026 83.2043C70.2228 82.8112 70.6787 82.426 71.0704 82.0488L67.9536 85.6437L67.1723 84.8324Z" fill="#FDE4C3"/>
<path d="M96.7012 64.4825L110.696 83.1171L108.708 84.6099L94.7135 65.9753L96.7012 64.4825ZM118.328 75.8799L118.989 76.8894L110.634 83.1638L109.911 82.201L118.328 75.8799ZM110.244 68.1558L110.943 69.0876L103.986 74.3123L103.287 73.3806L110.244 68.1558ZM105.025 58.2315L105.748 59.1943L97.3622 65.492L96.6391 64.5292L105.025 58.2315ZM117.454 71.0953L119.082 76.8194L114.361 80.3648L114.694 78.609C115.729 77.8315 116.448 77.0645 116.852 76.3082C117.261 75.5155 117.467 74.7127 117.472 73.8996C117.461 73.0658 117.352 72.2088 117.144 71.3285L117.454 71.0953ZM110.897 69.0255L112.226 70.7957L111.885 71.0523L111.581 70.6486C111.317 70.2966 110.988 70.0741 110.594 69.9811C110.185 69.8675 109.763 69.9739 109.328 70.3005L109.282 70.2383L110.897 69.0255ZM108.961 66.4477L110.29 68.218L108.675 69.4308L108.629 69.3687C109.063 69.0422 109.291 68.6769 109.311 68.273C109.316 67.8483 109.187 67.46 108.922 67.108L108.619 66.7042L108.961 66.4477ZM105.678 59.1011L107.287 61.2441L106.946 61.5006L106.596 61.0348C106.269 60.6 105.844 60.3361 105.321 60.2432C104.819 60.1348 104.329 60.2594 103.853 60.6171L103.783 60.5239L105.678 59.1011ZM104.651 57.7345L105.258 58.542L101.484 60.8905C102.126 60.4085 102.77 59.8435 103.417 59.1958C104.049 58.5273 104.46 58.0402 104.651 57.7345ZM107.278 82.5756L109.174 84.26L106.472 86.2893L106.239 85.9787C106.239 85.9787 106.312 85.9243 106.456 85.8154C106.601 85.7066 106.674 85.6522 106.674 85.6522C107.191 85.2634 107.492 84.779 107.574 84.1989C107.657 83.6188 107.537 83.0933 107.216 82.6222L107.278 82.5756ZM96.2451 67.8853L96.183 67.9319C95.8046 67.4713 95.3332 67.2101 94.7687 67.1483C94.2041 67.0865 93.6631 67.25 93.1454 67.6387C93.1454 67.6387 93.073 67.6932 92.928 67.802C92.7831 67.9109 92.7106 67.9653 92.7106 67.9653L92.4774 67.6547L95.1794 65.6254L96.2451 67.8853Z" fill="#FDE4C3"/>
<path d="M140.805 52.2864L143.059 57.1254C142.985 58.3585 142.66 59.5699 142.085 60.7597C141.509 61.9495 140.727 63.0632 139.738 64.1008C138.736 65.1159 137.57 66.0004 136.242 66.7543C133.954 68.0224 131.723 68.7077 129.548 68.8102C127.396 68.9 125.423 68.4122 123.627 67.3468C121.832 66.2814 120.314 64.6565 119.075 62.4719C117.823 60.2648 117.2 58.1174 117.206 56.0298C117.213 53.9421 117.806 51.9976 118.987 50.1962C120.191 48.382 121.93 46.8296 124.205 45.539C125.601 44.7468 127.111 44.1283 128.734 43.6836C130.357 43.239 131.872 43.0493 133.279 43.1146L136.725 47.4562L136.421 47.6287C134.75 45.8379 132.904 44.9201 130.884 44.8754C128.886 44.8179 126.84 45.3833 124.746 46.5717C122.967 47.5812 121.648 48.8506 120.789 50.38C119.939 51.8741 119.563 53.5462 119.66 55.3965C119.767 57.2115 120.383 59.1099 121.507 61.0918C122.606 63.0287 123.914 64.5197 125.43 65.565C126.955 66.5749 128.595 67.1035 130.348 67.1506C132.089 67.1752 133.855 66.694 135.647 65.707C137.337 64.7487 138.703 63.6159 139.748 62.3087C140.802 60.9662 141.425 59.4666 141.617 57.8099C141.808 56.1532 141.436 54.3695 140.501 52.4589L140.805 52.2864Z" fill="#FDE4C3"/>
<path d="M163.094 28.3807L171.548 50.0977L169.232 50.9995L160.777 29.2826L163.094 28.3807ZM147.421 34.4822L155.876 56.1991L153.559 57.1009L145.105 35.384L147.421 34.4822ZM165.211 39.602L165.634 40.6878L151.518 46.1833L151.095 45.0975L165.211 39.602ZM152.766 54.7422L153.668 57.0586L151.026 58.0873L150.885 57.7253C150.885 57.7253 150.957 57.6972 151.102 57.6408C151.247 57.5844 151.319 57.5563 151.319 57.5563C151.898 57.3308 152.306 56.9499 152.541 56.4135C152.801 55.8677 152.84 55.3247 152.657 54.7844L152.766 54.7422ZM154.865 53.9249L154.974 53.8826C155.181 54.4135 155.564 54.7921 156.125 55.0185C156.685 55.2449 157.255 55.2453 157.834 55.0199C157.834 55.0199 157.907 54.9917 158.051 54.9353C158.196 54.879 158.269 54.8508 158.269 54.8508L158.409 55.2127L155.767 56.2414L154.865 53.9249ZM148.214 36.8409L147.313 34.5244L149.955 33.4958L150.096 33.8577C150.096 33.8577 150.023 33.8859 149.879 33.9423C149.734 33.9987 149.661 34.0268 149.661 34.0268C149.082 34.2523 148.663 34.6379 148.403 35.1837C148.134 35.7053 148.107 36.2437 148.323 36.7986L148.214 36.8409ZM146.115 37.6582L146.007 37.7005C145.766 37.1549 145.371 36.781 144.82 36.5787C144.283 36.3429 143.725 36.3378 143.146 36.5632C143.146 36.5632 143.074 36.5914 142.929 36.6478C142.784 36.7041 142.712 36.7323 142.712 36.7323L142.571 36.3704L145.213 35.3417L146.115 37.6582ZM168.438 48.6407L169.34 50.9572L166.698 51.9859L166.557 51.6239C166.557 51.6239 166.63 51.5957 166.774 51.5394C166.919 51.483 166.991 51.4548 166.991 51.4548C167.571 51.2294 167.978 50.8484 168.214 50.3121C168.474 49.7663 168.512 49.2233 168.33 48.683L168.438 48.6407ZM170.538 47.8235L170.646 47.7812C170.877 48.3027 171.261 48.6813 171.797 48.9171C172.358 49.1434 172.927 49.1439 173.507 48.9184C173.507 48.9184 173.579 48.8903 173.724 48.8339C173.869 48.7775 173.941 48.7493 173.941 48.7493L174.082 49.1113L171.44 50.1399L170.538 47.8235ZM163.887 30.7395L162.985 28.423L165.627 27.3944L165.768 27.7563C165.768 27.7563 165.696 27.7845 165.551 27.8409C165.406 27.8972 165.334 27.9254 165.334 27.9254C164.755 28.1509 164.335 28.5365 164.075 29.0823C163.83 29.5945 163.803 30.1328 163.995 30.6972L163.887 30.7395ZM161.787 31.5568L161.679 31.599C161.439 31.0535 161.043 30.6795 160.492 30.4773C159.956 30.2415 159.398 30.2363 158.819 30.4618C158.819 30.4618 158.746 30.49 158.602 30.5463C158.457 30.6027 158.384 30.6309 158.384 30.6309L158.243 30.2689L160.886 29.2403L161.787 31.5568Z" fill="#FDE4C3"/>
<path d="M177.023 23.2751L202.506 38.2653L203.808 42.2312L178.299 27.1274L177.023 23.2751ZM181.869 44.2006L182.403 46.5486L179.563 47.1955L179.477 46.8168C179.477 46.8168 179.578 46.7938 179.78 46.7478C180.007 46.6961 180.121 46.6702 180.121 46.6702C180.701 46.5379 181.151 46.2364 181.468 45.7657C181.786 45.295 181.882 44.7819 181.755 44.2265L181.869 44.2006ZM183.459 43.8383C183.586 44.3938 183.894 44.8148 184.384 45.1015C184.9 45.3825 185.435 45.4597 185.991 45.3332C185.991 45.3332 186.092 45.3102 186.294 45.2642C186.521 45.2125 186.635 45.1866 186.635 45.1866L186.721 45.5653L183.88 46.2122L183.346 43.8642L183.459 43.8383ZM177.023 23.2751L179.134 25.025L183.994 46.1863L182.29 46.5745L178.063 28.0176C177.77 26.73 177.454 25.6335 177.115 24.7281C176.801 23.8169 176.644 23.3613 176.644 23.3613L177.023 23.2751ZM198.512 18.9783L202.704 37.3837C202.888 38.1916 203.091 38.9685 203.314 39.7145C203.532 40.4351 203.72 41.0296 203.88 41.4978C204.059 41.935 204.149 42.1536 204.149 42.1536L203.808 42.2312L201.684 40.6036L196.845 19.3578L198.512 18.9783ZM198.933 21.3522L198.398 19.0042L201.238 18.3573L201.325 18.736C201.325 18.736 201.211 18.7619 200.984 18.8136C200.782 18.8596 200.681 18.8826 200.681 18.8826C200.125 19.0091 199.676 19.3106 199.333 19.7871C199.016 20.2578 198.92 20.7709 199.047 21.3263L198.933 21.3522ZM197.38 21.7059C197.228 21.1562 196.907 20.738 196.417 20.4513C195.927 20.1646 195.392 20.0873 194.811 20.2196C194.811 20.2196 194.697 20.2455 194.47 20.2972C194.268 20.3432 194.167 20.3662 194.167 20.3662L194.081 19.9875L196.921 19.3406L197.456 21.6886L197.38 21.7059Z" fill="#FDE4C3"/>
<path d="M223.009 15.3956C224.816 15.2528 226.53 15.416 228.152 15.8853C229.797 16.3267 231.256 17.0426 232.529 18.0329C233.828 19.0212 234.872 20.2374 235.662 21.6816C236.449 23.0999 236.914 24.7125 237.057 26.5195C237.2 28.3264 236.995 30.005 236.442 31.5552C235.887 33.0797 235.046 34.4319 233.918 35.6119C232.817 36.7899 231.489 37.739 229.936 38.4592C228.406 39.1516 226.737 39.5691 224.93 39.7119C223.124 39.8547 221.41 39.7044 219.791 39.2609C218.169 38.7917 216.709 38.0629 215.41 37.0746C214.137 36.0843 213.107 34.8799 212.319 33.4616C211.53 32.0175 211.064 30.3919 210.921 28.585C210.778 26.778 210.984 25.1123 211.539 23.5879C212.092 22.0377 212.919 20.6736 214.021 19.4956C215.148 18.3155 216.477 17.3793 218.007 16.687C219.535 15.9689 221.202 15.5384 223.009 15.3956ZM224.839 38.5503C226.749 38.3994 228.442 37.798 229.917 36.7464C231.392 35.6947 232.517 34.3071 233.289 32.5836C234.062 30.8602 234.363 28.9143 234.192 26.7459C234.018 24.5518 233.416 22.6773 232.384 21.1224C231.35 19.5418 230.022 18.348 228.399 17.5411C226.777 16.7342 225.011 16.4062 223.101 16.5572C221.216 16.7061 219.536 17.3064 218.061 18.3581C216.586 19.4098 215.461 20.7974 214.689 22.5208C213.914 24.2185 213.613 26.1644 213.786 28.3585C213.958 30.5269 214.56 32.4014 215.594 33.982C216.628 35.5627 217.956 36.7565 219.579 37.5634C221.201 38.3703 222.954 38.6992 224.839 38.5503Z" fill="#FDE4C3"/>
<path d="M250.421 15.1858L249.433 38.4695L246.949 38.364L247.938 15.0804L250.421 15.1858ZM259.923 37.7097L259.794 38.9094L249.355 38.4662L249.406 37.2632L259.923 37.7097ZM262.28 33.4557L259.91 38.9144L254.012 38.6639L255.382 37.517C256.676 37.5719 257.718 37.4347 258.51 37.1055C259.328 36.7515 259.997 36.2615 260.516 35.6356C261.036 34.9839 261.495 34.2517 261.892 33.4393L262.28 33.4557ZM247.132 35.8837L247.531 38.3887L244.155 38.2454L244.172 37.8573C244.172 37.8573 244.262 37.8612 244.443 37.8689C244.624 37.8765 244.715 37.8804 244.715 37.8804C245.362 37.9079 245.901 37.7234 246.332 37.3271C246.764 36.9307 247.005 36.4485 247.055 35.8804L247.132 35.8837ZM250.199 17.6645L250.305 15.1809L253.177 15.3028L253.16 15.6909C253.16 15.6909 253.082 15.6876 252.927 15.681C252.772 15.6744 252.694 15.6711 252.694 15.6711C252.074 15.6448 251.521 15.8287 251.038 16.2228C250.582 16.5922 250.341 17.0744 250.316 17.6694L250.199 17.6645ZM247.91 17.5673L247.832 17.564C247.832 16.9678 247.62 16.4664 247.196 16.0597C246.774 15.6271 246.24 15.397 245.593 15.3696C245.593 15.3696 245.515 15.3663 245.36 15.3597C245.205 15.3531 245.127 15.3498 245.127 15.3498L245.144 14.9617L248.015 15.0837L247.91 17.5673Z" fill="#FDE4C3"/>
<path d="M283.143 17.7595C284.931 18.0571 286.555 18.6293 288.015 19.4761C289.505 20.3017 290.749 21.3486 291.745 22.617C292.767 23.8896 293.487 25.3219 293.904 26.9139C294.326 28.4803 294.388 30.1576 294.09 31.9456C293.793 33.7335 293.189 35.313 292.278 36.6839C291.372 38.0293 290.229 39.1385 288.85 40.0115C287.496 40.8887 285.979 41.4893 284.297 41.8132C282.646 42.1158 280.926 42.1183 279.138 41.8207C277.35 41.5231 275.724 40.9637 274.259 40.1424C272.799 39.2956 271.558 38.2359 270.536 36.9633C269.539 35.6949 268.83 34.2775 268.408 32.711C267.991 31.119 267.931 29.429 268.229 27.641C268.526 25.853 269.128 24.2864 270.035 22.941C270.945 21.57 272.077 20.4459 273.431 19.5687C274.81 18.6957 276.325 18.108 277.977 17.8053C279.633 17.4772 281.355 17.4619 283.143 17.7595ZM279.329 40.6713C281.219 40.9859 283.007 40.8109 284.693 40.1465C286.378 39.482 287.804 38.4068 288.97 36.9209C290.136 35.435 290.898 33.6192 291.255 31.4737C291.617 29.3025 291.484 27.338 290.858 25.58C290.236 23.7965 289.235 22.3174 287.856 21.1428C286.476 19.9682 284.842 19.2235 282.951 18.9089C281.087 18.5986 279.312 18.7756 277.626 19.4401C275.94 20.1045 274.515 21.1797 273.349 22.6657C272.187 24.1261 271.425 25.9418 271.064 28.1129C270.707 30.2585 270.839 32.2231 271.461 34.0066C272.083 35.7901 273.084 37.2692 274.463 38.4438C275.843 39.6184 277.465 40.3609 279.329 40.6713Z" fill="#FDE4C3"/>
<path d="M317.844 26.0502C318.978 26.415 320.01 26.8422 320.941 27.332C321.904 27.805 322.774 28.3568 323.55 28.9873C324.359 29.6012 325.087 30.2977 325.734 31.0771L324.87 36.5522L324.537 36.4452C324.66 34.8798 324.478 33.5019 323.99 32.3115C323.527 31.1289 322.751 30.1176 321.661 29.2774C320.58 28.4126 319.176 27.7027 317.45 27.1476C315.577 26.545 313.787 26.4451 312.079 26.8479C310.405 27.234 308.919 28.089 307.623 29.4129C306.335 30.7121 305.342 32.4463 304.644 34.6155C303.954 36.7601 303.75 38.748 304.031 40.5794C304.312 42.4107 305.029 43.9877 306.181 45.3104C307.341 46.6084 308.858 47.5587 310.731 48.1613C311.767 48.4944 312.788 48.7006 313.797 48.7801C314.805 48.8596 315.815 48.8039 316.829 48.6131C317.875 48.4055 318.899 48.0549 319.901 47.5612L321.52 42.6554C321.695 42.195 321.662 41.79 321.421 41.4404C321.204 41.0988 320.825 40.8407 320.283 40.6663L319.765 40.4998L319.884 40.13L326.65 42.3066L326.531 42.6764L326.014 42.5099C324.905 42.153 324.191 42.4676 323.874 43.4536L322.447 47.8906C321.65 48.4231 320.64 48.9005 319.416 49.3228C318.192 49.7452 316.81 49.9808 315.271 50.0297C313.757 50.0866 312.125 49.8336 310.375 49.2706C307.942 48.4609 305.965 47.2944 304.442 45.7709C302.944 44.2553 301.967 42.4722 301.511 40.4216C301.056 38.371 301.212 36.1502 301.982 33.7591C302.759 31.3434 303.93 29.4354 305.496 28.035C307.061 26.6346 308.907 25.7594 311.032 25.4095C313.158 25.0596 315.428 25.2732 317.844 26.0502Z" fill="#FDE4C3"/>
<path d="M341.488 35.4993L342.439 50.1288L340.415 50.6657L338.441 34.0377L341.488 35.4993ZM342.763 50.801L338.429 59.8362L336.152 58.7442L340.487 49.709L342.763 50.801ZM354.375 41.6815L356.581 42.7399L342.165 51.4188L341.054 50.412L354.375 41.6815ZM351.986 43.2494C352.467 42.9057 352.686 42.4794 352.642 41.9705C352.599 41.4616 352.321 41.0839 351.807 40.8376C351.807 40.8376 351.737 40.804 351.597 40.7368C351.457 40.6696 351.387 40.636 351.387 40.636L351.555 40.2858L358.874 43.7969L358.706 44.1471L358.286 43.9455C357.632 43.6319 356.924 43.5219 356.161 43.6154C355.433 43.6968 354.793 43.8926 354.243 44.2027L351.986 43.2494ZM341.672 38.2585L338.745 36.7255C338.63 36.0093 338.364 35.3651 337.949 34.7928C337.569 34.2083 337.041 33.7537 336.364 33.4289L335.943 33.2273L336.111 32.8771L344.236 36.7746L344.068 37.1248C344.068 37.1248 343.998 37.0912 343.858 37.024C343.718 36.9568 343.648 36.9232 343.648 36.9232C343.134 36.6768 342.66 36.7078 342.225 37.016C341.824 37.3121 341.64 37.7263 341.672 38.2585ZM337.333 56.5533L336.257 58.7946L333.701 57.5682L333.869 57.218C333.892 57.2292 333.962 57.2628 334.079 57.3188C334.219 57.386 334.289 57.4196 334.289 57.4196C334.85 57.6884 335.406 57.7256 335.959 57.5313C336.535 57.3481 336.958 57.0053 337.228 56.5029L337.333 56.5533ZM339.399 57.5445L339.504 57.5949C339.281 58.1197 339.266 58.6585 339.461 59.2112C339.679 59.7752 340.068 60.1916 340.628 60.4604C340.628 60.4604 340.698 60.494 340.838 60.5612C340.978 60.6283 341.048 60.6619 341.048 60.6619L340.88 61.0121L338.324 59.7858L339.399 57.5445Z" fill="#FDE4C3"/>
<path d="M383.252 54.0269C383.592 54.2645 383.938 54.5381 384.29 54.8478C384.663 55.1723 385.001 55.5032 385.302 55.8404C385.639 56.1713 385.927 56.4831 386.164 56.7759C386.438 57.0622 386.63 57.3072 386.74 57.5109L384.268 61.0431L383.982 60.8426C384.694 59.8243 384.901 58.7838 384.602 57.7211C384.318 56.6371 383.677 55.7462 382.68 55.0484C381.513 54.2318 380.309 53.9423 379.068 54.18C377.842 54.3965 376.887 54.9927 376.205 55.9686C375.922 56.3717 375.673 56.9084 375.457 57.5787C375.277 58.2427 375.267 58.9788 375.428 59.787L377.644 69.966C377.865 71.0054 377.844 71.9388 377.581 72.7661C377.318 73.5935 376.964 74.3254 376.518 74.9618C375.286 76.7226 373.743 77.776 371.889 78.1219C370.056 78.4827 368.227 78.0247 366.403 76.7478C365.894 76.3915 365.326 75.9153 364.7 75.3193C364.096 74.7381 363.554 74.0901 363.074 73.3753C362.631 72.654 362.345 71.9328 362.218 71.2116C362.392 70.8276 362.657 70.3811 363.013 69.8719C363.37 69.3627 363.783 68.8621 364.254 68.3699C364.74 67.8565 365.22 67.4184 365.695 67.0556L365.982 67.256C365.119 68.2637 364.596 69.3043 364.413 70.3777C364.231 71.4511 364.352 72.4524 364.776 73.3815C365.237 74.3042 365.949 75.071 366.912 75.6818C368.123 76.4348 369.402 76.7295 370.749 76.5661C372.132 76.3962 373.269 75.6749 374.16 74.402C374.591 73.7868 374.871 73.161 375 72.5245C375.144 71.8669 375.141 71.2167 374.99 70.574L372.845 60.6337C372.624 59.5943 372.631 58.6354 372.867 57.7572C373.117 56.8577 373.457 56.1004 373.888 55.4851C374.512 54.5941 375.325 53.8834 376.328 53.353C377.332 52.8226 378.425 52.5923 379.609 52.6622C380.829 52.7257 382.043 53.1806 383.252 54.0269ZM387.007 57.129L386.54 57.7973L384.121 56.1047L384.589 55.4364L387.007 57.129Z" fill="#FDE4C3"/>
<path d="M400.516 73.3721L385.222 90.8009L383.324 89.1356L398.619 71.7069L400.516 73.3721ZM407.684 79.4552L406.915 80.331L390.888 66.2661L391.656 65.3903L407.684 79.4552ZM406.966 80.2726L405.199 82.287L404.878 82.0052L405.288 81.5381C405.646 81.1294 405.809 80.6692 405.775 80.1576C405.779 79.6436 405.565 79.1805 405.134 78.7682L405.186 78.7098L406.966 80.2726ZM408.094 78.9881L407.428 79.7471L404.414 76.5858C404.803 76.9274 405.229 77.2666 405.691 77.6035C406.19 77.9379 406.659 78.2284 407.097 78.4751C407.535 78.7218 407.867 78.8928 408.094 78.9881ZM385.022 87.3185L383.383 89.1869L381.251 87.3167L381.508 87.0247C381.527 87.0418 381.585 87.0931 381.683 87.1785C381.8 87.2809 381.858 87.3322 381.858 87.3322C382.325 87.7421 382.861 87.9365 383.465 87.9155C384.069 87.8944 384.569 87.6783 384.964 87.2672L385.022 87.3185ZM386.774 88.8556L386.861 88.9325C386.505 89.3777 386.356 89.9012 386.413 90.503C386.471 91.1047 386.733 91.6106 387.2 92.0205C387.2 92.0205 387.249 92.0632 387.346 92.1486C387.463 92.2511 387.522 92.3023 387.522 92.3023L387.265 92.5942L385.134 90.724L386.774 88.8556ZM392.72 67.7705L392.669 67.8288C392.204 67.4555 391.707 67.2952 391.179 67.348C390.686 67.3985 390.261 67.6281 389.902 68.0368L389.492 68.5039L389.171 68.2221L390.939 66.2077L392.72 67.7705ZM392.066 64.9232C392.19 65.1353 392.393 65.434 392.675 65.8192C392.977 66.2216 393.326 66.6484 393.722 67.0996C394.135 67.5313 394.537 67.918 394.926 68.2596L391.4 65.6822L392.066 64.9232Z" fill="#FDE4C3"/>
<path d="M416.174 88.2441L405.065 97.8426C403.164 99.4847 402.08 101.26 401.812 103.168C401.561 105.096 402.164 106.902 403.619 108.587C405.228 110.448 407.008 111.46 408.961 111.62C410.93 111.801 412.816 111.112 414.619 109.555L426.052 99.6772L427.22 101.029L415.787 110.907C413.749 112.668 411.566 113.408 409.236 113.128C406.943 112.85 404.815 111.575 402.851 109.302C400.905 107.049 399.943 104.748 399.968 102.4C400.009 100.071 401.049 98.0269 403.087 96.2663L414.549 86.3631L416.174 88.2441ZM414.6 86.4219L413.042 87.7677L412.991 87.7089C413.327 87.3846 413.494 86.9837 413.492 86.5063C413.527 86.0315 413.375 85.5981 413.036 85.2062C413.036 85.2062 412.969 85.1279 412.833 84.9711C412.715 84.834 412.656 84.7654 412.656 84.7654L412.949 84.5114L414.6 86.4219ZM417.774 90.0957L417.48 90.3497C417.48 90.3497 417.412 90.2713 417.277 90.1145C417.159 89.9774 417.099 89.9088 417.099 89.9088C416.778 89.5365 416.362 89.3135 415.854 89.2396C415.382 89.1684 414.969 89.2852 414.617 89.5899L414.566 89.5311L416.124 88.1853L417.774 90.0957ZM426.103 99.736L424.545 101.082L424.494 101.023C424.847 100.718 425.023 100.327 425.021 99.8498C425.038 99.3554 424.878 98.9122 424.539 98.5204C424.539 98.5204 424.472 98.442 424.336 98.2852C424.218 98.1481 424.158 98.0795 424.158 98.0795L424.452 97.8256L426.103 99.736ZM428.82 102.881L428.526 103.135C428.526 103.135 428.458 103.056 428.323 102.9C428.204 102.762 428.145 102.694 428.145 102.694C427.824 102.322 427.417 102.108 426.925 102.054C426.453 101.983 426.032 102.09 425.662 102.375L425.612 102.316L427.169 100.97L428.82 102.881Z" fill="#FDE4C3"/>
<path d="M441.415 121.607C442.755 123.793 443.514 125.924 443.694 128C443.873 130.077 443.476 132.006 442.503 133.787C441.551 135.555 440.049 137.068 437.996 138.326C435.943 139.585 433.913 140.237 431.906 140.283C429.899 140.328 428 139.807 426.209 138.718C424.44 137.615 422.886 135.971 421.546 133.786L417.222 126.732L418.175 126.057C419.122 127.603 419.914 128.894 420.55 129.932C421.2 130.991 421.694 131.797 422.032 132.349C422.37 132.901 422.539 133.177 422.539 133.177C424.109 135.738 426.135 137.26 428.618 137.742C431.136 138.234 433.775 137.634 436.535 135.942C439.294 134.251 441.015 132.178 441.698 129.725C442.417 127.28 441.991 124.777 440.421 122.216C440.421 122.216 440.246 121.929 439.894 121.355C439.542 120.781 439.028 119.942 438.351 118.838C437.674 117.734 436.842 116.377 435.854 114.765L436.848 114.156L441.415 121.607ZM437.376 115.017L417.506 127.196L416.187 125.043L436.056 112.865L437.376 115.017ZM418.38 123.79L416.228 125.11L414.766 122.725L415.097 122.522C415.097 122.522 415.138 122.589 415.219 122.721C415.314 122.876 415.361 122.953 415.361 122.953C415.686 123.483 416.133 123.816 416.703 123.953C417.295 124.076 417.84 124 418.34 123.724L418.38 123.79ZM433.944 114.25L433.904 114.184C434.42 113.837 434.729 113.375 434.83 112.796C434.967 112.227 434.872 111.677 434.548 111.147C434.548 111.147 434.507 111.081 434.426 110.948C434.345 110.816 434.304 110.749 434.304 110.749L434.635 110.547L436.097 112.931L433.944 114.25Z" fill="#FDE4C3"/>
<path d="M454.099 145.6L432.618 154.637L431.654 152.346L453.135 143.309L454.099 145.6ZM437.78 163.801L436.64 164.196L432.588 154.566L433.698 154.099L437.78 163.801ZM447.239 157.841L446.165 158.292L442.791 150.273L443.866 149.821L447.239 157.841ZM458.136 155.195L457.026 155.662L452.959 145.995L454.069 145.528L458.136 155.195ZM442.633 164.119L436.685 164.304L434.396 158.862L436.017 159.612C436.52 160.806 437.088 161.69 437.724 162.265C438.393 162.855 439.121 163.251 439.909 163.453C440.72 163.645 441.578 163.748 442.482 163.761L442.633 164.119ZM446.237 158.262L444.196 159.121L444.031 158.727L444.496 158.531C444.902 158.361 445.198 158.096 445.384 157.736C445.594 157.367 445.593 156.932 445.382 156.431L445.454 156.401L446.237 158.262ZM449.209 157.012L447.168 157.871L446.385 156.009L446.456 155.979C446.667 156.48 446.966 156.79 447.353 156.908C447.763 157.016 448.172 156.985 448.577 156.814L449.043 156.618L449.209 157.012ZM457.133 155.616L454.663 156.656L454.497 156.262L455.034 156.036C455.536 155.825 455.895 155.477 456.112 154.993C456.34 154.532 456.338 154.027 456.107 153.478L456.215 153.433L457.133 155.616ZM458.709 154.954L457.778 155.345L456.419 151.113C456.73 151.853 457.121 152.616 457.592 153.401C458.086 154.176 458.459 154.694 458.709 154.954ZM433.976 151.454L431.88 152.883L430.57 149.768L430.928 149.618C430.928 149.618 430.963 149.701 431.033 149.868C431.103 150.035 431.139 150.119 431.139 150.119C431.39 150.716 431.786 151.125 432.329 151.346C432.871 151.567 433.41 151.579 433.945 151.382L433.976 151.454ZM450.91 144.329L450.88 144.258C451.419 144.003 451.787 143.609 451.984 143.077C452.181 142.544 452.154 141.979 451.903 141.383C451.903 141.383 451.868 141.299 451.798 141.132C451.728 140.965 451.693 140.881 451.693 140.881L452.051 140.731L453.361 143.846L450.91 144.329Z" fill="#FDE4C3"/>
<path d="M463.276 167.559L448.63 193.242L444.682 194.597L459.441 168.887L463.276 167.559ZM442.417 172.686L440.077 173.253L439.392 170.421L439.769 170.33C439.769 170.33 439.793 170.431 439.842 170.632C439.897 170.859 439.924 170.972 439.924 170.972C440.064 171.551 440.372 171.996 440.847 172.307C441.322 172.618 441.836 172.707 442.39 172.573L442.417 172.686ZM442.801 174.272C442.247 174.406 441.83 174.72 441.55 175.214C441.276 175.733 441.206 176.27 441.34 176.823C441.34 176.823 441.365 176.924 441.413 177.125C441.468 177.352 441.496 177.465 441.496 177.465L441.118 177.556L440.433 174.725L442.774 174.159L442.801 174.272ZM463.276 167.559L461.554 169.694L440.46 174.838L440.049 173.14L458.548 168.663C459.831 168.353 460.923 168.022 461.824 167.671C462.731 167.345 463.184 167.182 463.184 167.182L463.276 167.559ZM467.862 188.988L449.514 193.428C448.709 193.623 447.935 193.837 447.192 194.07C446.474 194.297 445.883 194.493 445.417 194.659C444.982 194.844 444.765 194.937 444.765 194.937L444.682 194.597L446.281 192.452L467.46 187.327L467.862 188.988ZM465.494 189.441L467.834 188.875L468.519 191.706L468.142 191.797C468.142 191.797 468.115 191.684 468.06 191.458C468.011 191.256 467.987 191.156 467.987 191.156C467.853 190.602 467.545 190.157 467.064 189.82C466.589 189.509 466.075 189.42 465.521 189.554L465.494 189.441ZM465.119 187.893C465.667 187.734 466.081 187.407 466.361 186.913C466.641 186.419 466.711 185.883 466.571 185.304C466.571 185.304 466.543 185.191 466.488 184.964C466.44 184.763 466.415 184.662 466.415 184.662L466.793 184.571L467.478 187.402L465.137 187.969L465.119 187.893Z" fill="#FDE4C3"/>
<path d="M470.411 211.792L447.283 213.453L447.102 210.935L470.23 209.274L470.411 211.792ZM471.24 221.156L470.077 221.239L468.55 199.971L469.712 199.887L471.24 221.156ZM470.155 221.234L467.482 221.426L467.451 221L468.071 220.955C468.613 220.916 469.052 220.703 469.388 220.315C469.751 219.952 469.925 219.472 469.908 218.876L469.985 218.871L470.155 221.234ZM471.86 221.111L470.852 221.184L470.928 216.817C470.965 217.334 471.03 217.874 471.122 218.439C471.243 219.027 471.372 219.563 471.51 220.046C471.649 220.529 471.765 220.885 471.86 221.111ZM449.587 210.834L447.107 211.012L446.904 208.184L447.292 208.156C447.294 208.182 447.299 208.26 447.308 208.389C447.32 208.544 447.325 208.621 447.325 208.621C447.37 209.241 447.614 209.756 448.059 210.165C448.504 210.575 449.011 210.772 449.581 210.757L449.587 210.834ZM449.754 213.159L449.762 213.275C449.196 213.342 448.722 213.609 448.34 214.078C447.958 214.547 447.79 215.091 447.834 215.711C447.834 215.711 447.839 215.776 447.848 215.905C447.859 216.06 447.865 216.137 447.865 216.137L447.478 216.165L447.274 213.337L449.754 213.159ZM468.797 202.328L468.719 202.334C468.651 201.742 468.41 201.279 467.997 200.945C467.611 200.635 467.147 200.5 466.605 200.539L465.985 200.583L465.954 200.157L468.627 199.965L468.797 202.328ZM470.332 199.843C470.271 200.081 470.206 200.436 470.136 200.908C470.068 201.406 470.016 201.955 469.981 202.555C469.972 203.152 469.987 203.71 470.024 204.226L469.325 199.915L470.332 199.843Z" fill="#FDE4C3"/>
</svg>
